<svg transform="scale(1)" id="_0372_Post" xmlns="http://www.w3.org/2000/svg" viewBox="0 0 500 500" class="show_show__wrapper__graphic__5Waiy "><title>React</title><defs><style>.cls-1{fill:#d6b2a4;}.cls-2{fill:#3c4368;}.cls-3{fill:#ffde91;}.cls-4{fill:#af93a2;}.cls-5{fill:#e6e7e8;}.cls-6{fill:#bcbec0;}</style></defs><g id="shadow"><path class="cls-3" d="M380.45,279.56c14.33-25.29,14.98-56.25,9.94-84.87-2.5-14.19-6.42-28.44-14.43-40.42-3.64-5.45-8.17-10.34-13.43-14.25-5.65-4.2-11.94-5.53-17.97-8.74-4.61-2.45-6.57-7.44-10.13-11.04-4.81-4.88-11.43-7.79-18.03-9.34-10.05-2.36-20.64-2.34-30.37-5.77-12.17-4.3-22.11-13.72-34.46-17.47-15.77-4.79-33.09,.52-46.93,9.47-13.83,8.95-25.08,21.27-37.27,32.35-10.7,9.73-22.45,18.87-29.66,31.41-8.42,14.64-9.67,32.43-7.68,49.19,1.99,16.77,6.98,33.02,10.34,49.57,4.62,22.79,6.88,47.8,22.54,64.98,11.08,12.15,27.13,18.27,42.56,23.97,16.61,6.14,33.8,12.38,51.48,11.38,21.21-1.2,40.31-12.6,58.43-23.68,24.83-15.19,50.71-31.43,65.06-56.75Zm-118.61-161.48c-6.73,.19-13.19-2.52-19.66-3.96-9.04-2-18.61-1.58-27.43,1.22-1.44,.46-2.91,.98-4.41,.87-1.51-.12-3.07-1.08-3.33-2.57-.25-1.47,.79-2.81,1.81-3.89,7.48-7.83,17.96-12.73,28.76-13.45,7.65-.51,15.16,1.14,22.08,4.35,3.57,1.66,12.08,4,13.74,7.97,2.65,6.34-7.07,9.33-11.55,9.46Z"></path><path class="cls-3" d="M286.82,88.09c-2.17-.78-5.02-1.15-6.42,.69-1.31,1.73-.39,4.24,.91,5.97,2.97,3.96,7.62,6.39,12.42,7.58,4.8,1.2,9.8,1.28,14.75,1.32,1.23,.01,2.69-.1,3.32-1.16,.57-.96,.1-2.27-.77-2.99-.86-.72-2-.98-3.09-1.23-4.1-.92-7.02-1.39-10.32-3.92-3.31-2.54-6.76-5.04-10.81-6.28Z"></path><path class="cls-3" d="M300.91,352.37c-3.55,2.8-.57,8.5,3.72,7.05,2.07-.7,4.11-1.63,6-2.58,16.37-8.19,32.62-16.87,47.11-28.06,14.49-11.19,27.25-25.06,35.03-41.63,.91-1.95,1.71-4.43,.16-6.04-.98-1.02-2.52-1.22-3.86-.76-2.13,.73-3.42,2.6-4.67,4.37-9.44,13.39-20.89,24.92-33.75,35.03-5.46,4.29-9.51,7.67-15.83,10.9-6.96,3.56-13.72,7.51-20.24,11.84-4.69,3.11-9.25,6.41-13.66,9.89Z"></path><path class="cls-3" d="M391.19,266.2c-.63,1.57-1.27,3.22-1.06,4.89,.22,1.67,1.62,3.32,3.3,3.17,1.26-.11,2.22-1.14,3-2.13,4.27-5.36,7.28-11.71,8.73-18.41,1.03-4.79-3.07-11.17-7.02-5.69-1.34,1.86-1.76,5.19-2.6,7.34-1.41,3.62-2.91,7.22-4.36,10.83Z"></path></g><g id="notes"><path class="cls-2" d="M61.49,368.99c5.54,2.07,11.63,1.95,17.54,1.8,43.54-1.1,87.51-2.26,129.74-12.94,8.38-2.12,17.41-5.15,21.92-12.53,3.2-5.23,3.47-11.67,3.63-17.8,1.71-67.64-.51-135.55-10.8-202.43-.98-6.35-2.47-13.42-7.82-16.98-3.17-2.12-7.14-2.56-10.94-2.91-44.29-4.03-89.1-2.35-132.96,5.01-8.17,1.37-17,3.33-22.28,9.71-5.08,6.15-5.53,14.77-5.7,22.74-.69,31.79-.71,63.6-.07,95.39,.64,32.1,1.96,64.18,3.95,96.22,.79,12.72-.89,29.19,13.81,34.7Z"></path><path class="cls-5" d="M62.97,122.74c49.33-5.23,98.99-7.35,148.58-6.33-14.09,63.95,8.63,236.29,36.49,231.87-14.85,17.95-55.07,44.13-72.02,60.11-4.41,4.16-9.33,8.45-15.36,9.09-6.46,.69-12.51-2.97-17.79-6.76-30.82-22.13-54.25-54.08-66.97-89.76-6.07-17.02-17.62-96.49-17.7-116.89-.1-27.18,1.49-54.36,4.76-81.34Z"></path><path class="cls-1" d="M181.62,108.45c-.46-3.62-2.4-7.26-5.71-8.78-3.41-1.57-7.74-.72-10.75-2.97-3.16-2.37-3.42-7.07-5.9-10.14-2.8-3.46-7.74-4.14-12.19-4.24-6.7-.16-13.41,.41-19.98,1.69-3.31,.65-6.76,1.56-9.19,3.91-2.69,2.6-3.68,6.53-6.11,9.39-4.9,5.84-12.45,3.3-17.99,7.22-4.43,3.14-4.69,15.03-.77,18.55,1.56,1.4,3.84,1.57,5.94,1.67,27.36,1.31,55.32,2.33,81.58-5.46,.76-3.57,1.52-7.21,1.06-10.83Zm-36.77-14.16c-5.53,1.14-11.21,1.59-16.86,1.33-2.28-.11-5.04-.69-5.75-2.86-.93-2.85,23.95-6.57,27.8-3.11,4.05,3.63-1.71,3.92-5.2,4.64Z"></path><path class="cls-6" d="M77.42,268.7c-.26,0-.49-.21-.5-.47-.01-.28,.2-.51,.47-.53,40.26-2.09,80.25-9.05,118.85-20.67,.27-.08,.54,.07,.62,.33,.08,.26-.07,.54-.33,.62-38.68,11.65-78.75,18.62-119.09,20.71,0,0-.02,0-.03,0Z"></path><path class="cls-6" d="M81.22,286.23c-.26,0-.49-.21-.5-.47-.01-.28,.2-.51,.47-.52,38.46-1.95,76.18-9.96,112.12-23.82,.26-.1,.55,.03,.65,.29,.1,.26-.03,.55-.29,.65-36.03,13.9-73.86,21.93-112.42,23.89,0,0-.02,0-.03,0Z"></path><path class="cls-6" d="M87.39,303.13c-.25,0-.47-.19-.5-.45-.03-.27,.17-.52,.45-.55,37.75-3.73,75.05-11.95,110.87-24.43,.22-.08,.46,0,.59,.2s.1,.45-.06,.62l-2.13,2.21c-.19,.2-.51,.2-.71,.01-.2-.19-.2-.51-.01-.71l.68-.71c-35.29,12.13-71.99,20.14-109.13,23.8-.02,0-.03,0-.05,0Z"></path><path class="cls-6" d="M92.7,317.66c-.25,0-.47-.19-.5-.45-.03-.27,.17-.52,.44-.55,37.1-4.09,73.75-12.46,108.96-24.88,.26-.09,.55,.05,.64,.31,.09,.26-.04,.55-.31,.64-35.27,12.44-72,20.82-109.18,24.93-.02,0-.04,0-.06,0Z"></path><path class="cls-6" d="M99.29,332.83c-.26,0-.48-.21-.5-.47-.02-.28,.2-.51,.47-.53,21.96-1.22,43.62-5.52,64.38-12.79,.26-.09,.55,.05,.64,.31,.09,.26-.05,.55-.31,.64-20.85,7.3-42.6,11.63-64.65,12.85,0,0-.02,0-.03,0Z"></path></g><g id="character"><g><path class="cls-6" d="M189.39,380.8c9.13-14.4,16.49-30.03,27.42-43.12,4.02-4.82,8.58-9.31,14.05-12.39,5.47-3.07,11.97-4.64,18.12-3.39,8.2,1.67,14.56,7.88,21.39,12.7,12.7,8.97,28.39,13.61,43.93,12.99-4.18,4.97-11.55,5.21-17.86,6.76-18,4.41-30.37,21.45-47.79,27.77-9,3.27-18.87,3.48-27.88,6.72-7.97,2.86-14.92,7.95-21.71,13-6.8,5.05-13.68,10.2-21.6,13.21-6.65,2.53-17.45,4.48-23.7-.04,6.85-4.76,13.95-8.04,20.05-14.16,5.99-6,11.05-12.89,15.58-20.04Z"></path><path class="cls-5" d="M305.88,343.11c3.21,.06,6.56-.21,9.49,1.11,4.85,2.19,6.91,7.92,7.87,13.16,1.26,6.88,1.49,13.96,3.51,20.66,2.02,6.69,6.28,13.23,12.86,15.6-4.6,4.05-11.31,4.56-17.42,4.08-6.11-.48-12.31-1.74-18.31-.49-6.02,1.26-11.21,4.92-16.7,7.71-5.49,2.78-12.05,4.72-17.72,2.33-4.53-1.91-7.62-6.31-9.16-10.98-1.54-4.67-1.76-9.65-2.04-14.56-.95-16.3-2.84-32.67-7.85-48.21-1.01-3.13-2.2-6.31-4.42-8.74-2.22-2.43-5.72-3.96-8.86-2.99,7-4.32,15.82-5.58,23.75-3.4,9.27,2.54,13.22,8.64,19.12,15.36,5.84,6.64,17.44,9.21,25.88,9.36Z"></path><path class="cls-6" d="M334.91,358.76c-9.44,.16-18.22,5.12-25.23,11.44-7.01,6.32-12.61,14.02-18.82,21.12-6.21,7.1-13.32,13.81-22.11,17.24,3.88,3.48,9.92,3.09,14.82,1.29,4.89-1.8,9.34-4.79,14.41-6.03,11.72-2.86,25.2,3.95,35.65-2.1,5.5-3.18,8.61-9.17,12.44-14.23,6.19-8.16,14.89-14.39,24.62-17.61,1.92-.63,3.93-1.16,5.93-.92,2,.24,4.01,1.4,4.74,3.28,2.44-10.27-14.28-6.86-19.19-7.69-9.16-1.55-17.82-5.96-27.26-5.8Z"></path><path class="cls-5" d="M413.49,398.64c-6.98-1.49-14.32-3.41-19.28-8.55-4.16-4.31-6.03-10.27-8.58-15.69-2.55-5.42-6.49-10.89-12.34-12.2-5.24-1.17-10.68,1.32-16.02,.74-4.63-.5-8.68-3.24-13.12-4.62-7.66-2.38-16.52-.38-22.41,5.05,5.37,.69,9.59,5.18,11.72,10.15,2.13,4.97,2.62,10.46,3.49,15.8,.87,5.34,2.27,10.83,5.81,14.93,6.27,7.24,17.33,7.96,26.71,6.02,9.38-1.94,18.4-5.98,27.98-6.28,12.43-.39,24.18,5.54,36.53,6.95,12.13,1.39,24.65-1.45,36.23-4.77-19.02-.77-38.11-3.55-56.72-7.53Z"></path></g></g><g id="new-post"><path class="cls-3" d="M106.83,244.65c1.76-.11,2.67-2.27,2.61-4.04-.07-1.77-.67-3.59-.16-5.3,1.07-3.56,5.75-4.11,9.4-4.06,16.32,.2,32.49-1.55,48.13-5.17,7.36-1.7,15.17-4.17,20.06-10.35,5.18-6.54,5.86-15.63,6.29-24.11,.55-10.69,1.1-21.55,1.66-32.58,.19-3.66,.37-7.38-.28-10.97-.66-3.61-2.27-7.13-5.04-9.15-3.5-2.56-8.09-2.3-12.35-1.95-25.42,2.08-51.36,4.21-77.83,6.38-6.28,.51-13.04,1.22-17.74,5.58-4.49,4.17-6.09,10.78-6.94,17.04-1.78,13.11-1.21,26.27-.66,39.11,.2,4.73,.42,9.47,1.72,13.97,2.74,9.44,8.93,12.61,17.84,13.66,2.65,.31,4.67,.61,6.45,2.74,1.92,2.29,3.04,9.45,6.83,9.21Z"></path><path class="cls-4" d="M91.11,222.87c-1.12,0-2.07-.88-2.13-2.01l-1.45-24.4c-.13-2.14-.34-5.71,1.94-8.21,1.36-1.49,3.19-2.15,4.81-2.59,5.39-1.48,10.01-.68,12.7,2.21,2.5,2.68,3.01,7.08,1.25,10.7-1.4,2.87-4.11,5.26-7.65,6.74-2.66,1.11-5.42,1.62-8.12,2.06l.79,13.24c.07,1.18-.83,2.19-2.01,2.26-.04,0-.09,0-.13,0Zm8.26-33.67c-1.57,0-3.08,.34-3.97,.58-1.03,.28-2.16,.66-2.78,1.35-.98,1.08-.95,3.1-.83,5.07l.41,6.87c2.31-.38,4.63-.84,6.72-1.71,2.58-1.08,4.51-2.74,5.45-4.67,.99-2.03,.76-4.52-.53-5.92-1.13-1.22-2.84-1.58-4.47-1.58Z"></path><path class="cls-4" d="M95.57,183.43s-.06,0-.08,0c-1.18-.05-2.1-1.04-2.06-2.22l.82-21.51c.13-3.36,1.88-4.66,3.49-4.74,1.2-.07,2.9,.46,4.02,3.36l6.59,17.07c.39,1.01,.79,2.05,1.37,2.77,.44,.55,.96,.8,1.26,.77,.29-.03,.74-.38,1.06-1,.4-.77,.56-1.79,.73-2.94,1.06-7.33,1.63-14.86,1.7-22.4,.01-1.17,.97-2.12,2.14-2.12h.02c1.18,.01,2.13,.98,2.12,2.16-.08,7.73-.66,15.46-1.74,22.97-.17,1.18-.4,2.8-1.15,4.27-.96,1.88-2.61,3.12-4.42,3.31-1.81,.19-3.69-.68-5.03-2.33-1-1.24-1.56-2.66-2.04-3.92l-5.9-15.27-.75,19.72c-.04,1.15-.99,2.06-2.14,2.06Z"></path><path class="cls-4" d="M126.41,183.73c-1.17,0-2.52-.25-3.69-1.16-1.79-1.38-2.59-3.91-2.05-6.45,.45-2.09,1.67-3.78,2.69-5.02,1.42-1.73,3.01-3.29,4.73-4.66-.77-.1-1.53-.24-2.28-.41-2.95-.67-4.78-2.26-5.15-4.48-.43-2.57,1.41-4.54,2.02-5.19,4.11-4.41,9.82-6.96,15.65-7.01h.02c1.17,0,2.13,.95,2.14,2.12,0,1.18-.94,2.15-2.12,2.15-4.66,.03-9.24,2.09-12.56,5.65-.96,1.03-.94,1.49-.93,1.58,.05,.3,.71,.75,1.87,1.01,3.07,.7,6.31,.69,9.36-.02,1.09-.25,2.19,.38,2.52,1.45,.33,1.07-.21,2.21-1.25,2.63-4.11,1.64-7.82,4.37-10.72,7.9-.75,.92-1.56,2.02-1.81,3.2-.18,.86,.03,1.81,.48,2.17,.43,.34,1.31,.35,2.59,.05,4.21-1.01,8.14-3.45,11.05-6.87,.77-.9,2.11-1.01,3.01-.24,.9,.77,1.01,2.12,.24,3.01-3.49,4.11-8.22,7.04-13.31,8.25-.47,.11-1.41,.34-2.51,.34Z"></path><path class="cls-4" d="M150.79,177.94c-.26,0-.53-.02-.79-.07-3.34-.58-4.65-4.27-5.08-5.49-2.31-6.55-3.24-13.76-2.68-20.87,.1-1.18,1.11-2.06,2.3-1.96,1.18,.09,2.06,1.12,1.96,2.3-.52,6.51,.33,13.12,2.44,19.1,.84,2.37,1.57,2.66,1.77,2.7,.31,.05,.93-.28,1.36-.92,.6-.9,.89-2.18,1.11-3.32,.59-3.07,.93-6.2,1-9.34-.14-1.75-.17-3.5-.11-5.26,.04-1.14,.97-2.04,2.11-2.06,1.15-.03,2.09,.86,2.16,2,.11,1.73,.15,3.47,.12,5.2,.32,3.9,1.19,7.73,2.57,11.27,.62,1.59,1.3,2.18,1.48,2.21,.05,0,.45-.12,1.28-1.62,3.78-6.8,6.01-14.6,6.46-22.56,.07-1.18,1.1-2.09,2.25-2.02,1.18,.07,2.08,1.08,2.02,2.25-.48,8.6-2.9,17.04-6.99,24.4-.56,1-1.86,3.35-4.31,3.76-2.57,.43-4.81-1.35-6.18-4.88-.05-.14-.11-.28-.16-.42-.28,.94-.67,1.88-1.26,2.76-1.19,1.77-3.03,2.82-4.85,2.82Z"></path><path class="cls-4" d="M119.26,222.8c-2.55,0-4.97-1.03-6.52-2.91-2.03-2.46-2.19-5.75-2.14-8.01h0c.12-5.21,1.8-15.07,7.37-19.01,2.49-1.76,5.5-2.14,8.68-1.1,3.07,1.01,5.25,3.21,6.28,6.36,2.09,6.34-.87,14.69-3.64,18.58-2.03,2.85-4.5,4.8-7.15,5.64-.95,.3-1.93,.45-2.89,.45Zm3.96-27.32c-1.02,0-1.94,.3-2.78,.89-3.89,2.75-5.46,10.85-5.56,15.62h0c-.06,2.51,.31,4.16,1.16,5.19,1.01,1.22,2.99,1.68,4.82,1.1,2.21-.7,3.91-2.58,4.94-4.03,2.62-3.68,4.47-10.49,3.07-14.77-.61-1.86-1.77-3.05-3.55-3.63-.74-.24-1.44-.37-2.1-.37Zm-10.48,16.46h0Z"></path><path class="cls-4" d="M138.3,222.89c-2.5,0-4.69-.99-6.01-2.71-.72-.94-.54-2.28,.4-3,.93-.72,2.28-.54,3,.4,.5,.65,1.47,1.03,2.62,1.03h.03c1.32,0,2.77-.47,4.17-.92,1.52-.49,3.1-.99,4.31-1.86,1.1-.79,1.82-1.91,1.87-2.91,.07-1.45-1.19-2.8-2.39-3.58-.79-.52-1.69-.94-2.63-1.39-1.07-.51-2.18-1.04-3.25-1.75-3.82-2.53-6.36-7.06-6.65-11.82-.22-3.65,1.06-6.77,3.41-8.35,2.29-1.54,5.43-1.52,8.39,.07,3.56,1.91,6.17,5.49,6.99,9.58,.23,1.16-.52,2.28-1.68,2.52-1.16,.23-2.29-.52-2.52-1.68-.56-2.81-2.41-5.36-4.81-6.65-1.19-.64-2.86-1.05-3.98-.29-1.27,.86-1.62,2.99-1.53,4.55,.21,3.45,2.02,6.71,4.74,8.51,.82,.54,1.74,.98,2.72,1.45,1.03,.49,2.1,1,3.13,1.67,2.85,1.85,4.46,4.61,4.33,7.37-.11,2.31-1.48,4.62-3.65,6.18-1.76,1.26-3.75,1.9-5.5,2.46-1.63,.52-3.47,1.11-5.45,1.12h-.05Z"></path><path class="cls-4" d="M153.75,188.73c-1.11,0-2.05-.86-2.13-1.99-.08-1.18,.81-2.2,1.99-2.28l24.07-1.65c1.18-.08,2.2,.81,2.28,1.99,.08,1.18-.81,2.2-1.99,2.28l-24.07,1.65c-.05,0-.1,0-.15,0Z"></path><path class="cls-4" d="M163.33,220.63c-1.16,0-2.11-.93-2.14-2.1-.22-11.32,.4-22.93,1.85-34.5,.15-1.17,1.22-2,2.39-1.86,1.17,.15,2,1.22,1.86,2.39-1.42,11.37-2.03,22.77-1.82,33.89,.02,1.18-.92,2.16-2.1,2.18-.01,0-.03,0-.04,0Z"></path></g><g id="pen"><path class="cls-1" d="M268.35,191.81c-41.65,39.44-84.13,79.97-109.91,131.21,39.75-14.91,75.25-39.6,106.77-68.04,31.52-28.44,59.33-60.69,87.05-92.84,4.3-4.98,12.79-13.95,9.39-21.32-2.67-5.81-10.95-5.98-16.31-5.09-18.25,3.03-36.66,20.05-50.25,31.65-9.18,7.84-17.97,16.13-26.74,24.43Z"></path><path class="cls-4" d="M353.41,136.04c-1.6,1.47-3.19,3.1-3.83,5.18-.64,2.08,0,4.7,1.94,5.66,2.43,1.2,5.21-.65,7.28-2.39,3.43-2.88,24.79-17.65,19.37-21.11-6.61-4.22-20.87,9.05-24.77,12.65Z"></path><path class="cls-4" d="M341.55,194.22c-9.93,10.5-23.33,16.93-36.6,22.65-5.95,2.56-12.01,5.07-17.12,9.04-5.11,3.97-9.24,9.69-9.77,16.14-.25,3.03,.42,6.33,2.61,8.44,2.19,2.11,6.15,2.47,8.17,.19,1.94-2.19,1.41-5.51,1.8-8.4,.98-7.29,7.95-12.07,14.4-15.6,13.23-7.25,27.24-13.42,38.83-23.08,11.58-9.66,20.68-23.81,19.77-38.86-.64-10.75-7.7-13.65-9.27-1.76-1.61,12.14-4.03,21.96-12.81,31.25Z"></path><path class="cls-4" d="M200.5,303.24c22.04-4.56,39.58-20.72,55.9-36.22,4.3-4.08,8.78-8.47,10.32-14.19,2.33-8.68-2.79-17.53-8.39-24.55-5-6.26-11.96-12.57-19.88-11.38-5.44,.81-9.67,4.99-13.44,8.98-13.11,13.87-25.75,28.22-37.72,43.09-6.19,7.68-4.55,9.29,2.1,15.45,1.34,1.24,13.46,18.33,11.11,18.81Z"></path><path class="cls-4" d="M338.28,178.86c3.47-.82,5.77-4.39,6.09-7.94,.32-3.55-.96-7.05-2.54-10.24-3.19-6.42-7.83-12.28-13.99-15.94-2.53-1.51-10.69-2.59-8.31,2.74,1.41,3.16,6.17,6.22,8.35,9.09,1.22,1.61,12.38,21.83,10.4,22.3Z"></path></g></svg>