<svg xmlns="http://www.w3.org/2000/svg" width="170" height="47" viewBox="0 0 170 47">
  <g id="app_store" transform="translate(-509 -592)">
    <rect id="Прямоугольник_3389" data-name="Прямоугольник 3389" width="170" height="47" rx="10" transform="translate(509 592)" fill="#fff"/>
    <g id="apple" transform="translate(526.837 600.619)">
      <path id="Контур_1164" data-name="Контур 1164" d="M66.927,15.141A6.447,6.447,0,0,1,70,9.715a6.654,6.654,0,0,0-5.21-2.824C62.573,6.667,60.463,8.2,59.336,8.2s-2.861-1.273-4.7-1.24a6.972,6.972,0,0,0-5.894,3.572c-2.513,4.361-.644,10.82,1.806,14.357,1.2,1.731,2.624,3.675,4.5,3.606,1.8-.072,2.487-1.168,4.668-1.168s2.795,1.168,4.7,1.132c1.942-.036,3.172-1.764,4.36-3.5A15.713,15.713,0,0,0,70.75,20.9,6.294,6.294,0,0,1,66.927,15.141ZM63.339,4.55A6.28,6.28,0,0,0,64.821,0a6.388,6.388,0,0,0-4.2,2.158,5.974,5.974,0,0,0-1.513,4.409A5.285,5.285,0,0,0,63.339,4.55Z" transform="translate(-47.548)" fill="#1a1a1a"/>
    </g>
    <g id="Сгруппировать_43554" data-name="Сгруппировать 43554" transform="translate(-60 31)">
      <path id="Контур_3686" data-name="Контур 3686" d="M.252-.631.6-1.2a.46.46,0,0,1,.127-.116.3.3,0,0,1,.164-.049.555.555,0,0,1,.318.14,4.516,4.516,0,0,0,.47.308,3.906,3.906,0,0,0,.7.308,3.083,3.083,0,0,0,.995.14,3.159,3.159,0,0,0,.9-.117,1.8,1.8,0,0,0,.664-.345,1.5,1.5,0,0,0,.411-.557,1.839,1.839,0,0,0,.142-.736,1.549,1.549,0,0,0-.136-.65,1.379,1.379,0,0,0-.4-.508,1.9,1.9,0,0,0-.633-.326,2.821,2.821,0,0,0-.844-.117H2.242v-.995H3.428a2.561,2.561,0,0,0,.717-.1A1.693,1.693,0,0,0,4.717-5.2a1.32,1.32,0,0,0,.374-.453,1.351,1.351,0,0,0,.136-.618A1.3,1.3,0,0,0,5.1-6.845a1.258,1.258,0,0,0-.368-.45,1.765,1.765,0,0,0-.59-.29,2.782,2.782,0,0,0-.788-.1,3,3,0,0,0-.874.111,3.393,3.393,0,0,0-.609.244,3.754,3.754,0,0,0-.4.244.485.485,0,0,1-.266.111.27.27,0,0,1-.164-.047.447.447,0,0,1-.121-.149l-.3-.588a3.58,3.58,0,0,1,1.19-.686,4.658,4.658,0,0,1,1.542-.237,4.279,4.279,0,0,1,1.264.173,2.868,2.868,0,0,1,.948.481,2.124,2.124,0,0,1,.6.731,2.074,2.074,0,0,1,.208.928,2.185,2.185,0,0,1-.337,1.212,2.245,2.245,0,0,1-.955.814,3.314,3.314,0,0,1,.633.353,2.327,2.327,0,0,1,.491.47,2.076,2.076,0,0,1,.315.577,1.968,1.968,0,0,1,.111.664,2.865,2.865,0,0,1-.217,1.115,2.536,2.536,0,0,1-.637.9,3.017,3.017,0,0,1-1.031.6,4.116,4.116,0,0,1-1.4.22A4.562,4.562,0,0,1,1.587.24,4.1,4.1,0,0,1,.252-.631Zm7.329-.495a1.42,1.42,0,0,1,.207-.729,1.807,1.807,0,0,1,.677-.624,4.512,4.512,0,0,1,1.22-.448,9.16,9.16,0,0,1,1.851-.2v-.5a1.7,1.7,0,0,0-.325-1.128,1.174,1.174,0,0,0-.944-.38,2.026,2.026,0,0,0-.7.105,2.847,2.847,0,0,0-.489.232q-.207.127-.356.232a.5.5,0,0,1-.291.105.326.326,0,0,1-.194-.059A.491.491,0,0,1,8.1-4.673l-.2-.358A3.667,3.667,0,0,1,9.037-5.8,3.519,3.519,0,0,1,10.4-6.051a2.354,2.354,0,0,1,.945.179,2,2,0,0,1,.7.494,2.062,2.062,0,0,1,.428.763,3.212,3.212,0,0,1,.144.986v4.1h-.5a.494.494,0,0,1-.253-.053.386.386,0,0,1-.142-.213l-.109-.6a6.381,6.381,0,0,1-.5.408,3.038,3.038,0,0,1-.505.3,2.6,2.6,0,0,1-.561.188,3.168,3.168,0,0,1-.67.065,2.357,2.357,0,0,1-.7-.1A1.547,1.547,0,0,1,8.1.16a1.5,1.5,0,0,1-.382-.528A1.852,1.852,0,0,1,7.581-1.126Zm1.075-.063a1.051,1.051,0,0,0,.081.431.792.792,0,0,0,.223.3A.888.888,0,0,0,9.3-.294a1.62,1.62,0,0,0,.418.052A2.39,2.39,0,0,0,10.26-.3a2.062,2.062,0,0,0,.464-.168,2.5,2.5,0,0,0,.418-.269,3.768,3.768,0,0,0,.393-.361V-2.411a9.46,9.46,0,0,0-1.331.122,3.825,3.825,0,0,0-.895.254,1.22,1.22,0,0,0-.5.37A.794.794,0,0,0,8.656-1.189ZM14.342.475V-5.934h2.393a3.839,3.839,0,0,1,1.039.123,2.151,2.151,0,0,1,.711.332,1.275,1.275,0,0,1,.406.493,1.451,1.451,0,0,1,.129.607,1.583,1.583,0,0,1-.063.429,1.319,1.319,0,0,1-.215.429,1.48,1.48,0,0,1-.413.368,2.14,2.14,0,0,1-.651.254,2.176,2.176,0,0,1,1.159.506,1.305,1.305,0,0,1,.412,1,1.672,1.672,0,0,1-.19.818,1.754,1.754,0,0,1-.517.582,2.279,2.279,0,0,1-.766.351,3.709,3.709,0,0,1-.943.115Zm1.075-.816H16.8a1.575,1.575,0,0,0,1-.29.959.959,0,0,0,.369-.8,1.122,1.122,0,0,0-.071-.409.835.835,0,0,0-.229-.324,1.046,1.046,0,0,0-.421-.214,2.42,2.42,0,0,0-.641-.073H15.417Zm0-2.824h1.239a1.714,1.714,0,0,0,.517-.075,1.225,1.225,0,0,0,.409-.213.984.984,0,0,0,.266-.333.96.96,0,0,0,.1-.43.936.936,0,0,0-.062-.336.689.689,0,0,0-.217-.288,1.17,1.17,0,0,0-.4-.2,2.11,2.11,0,0,0-.61-.075H15.417Zm4.727,2.039a1.42,1.42,0,0,1,.207-.729,1.807,1.807,0,0,1,.677-.624,4.512,4.512,0,0,1,1.22-.448,9.16,9.16,0,0,1,1.851-.2v-.5a1.7,1.7,0,0,0-.325-1.128,1.174,1.174,0,0,0-.944-.38,2.026,2.026,0,0,0-.7.105,2.847,2.847,0,0,0-.489.232q-.207.127-.356.232a.5.5,0,0,1-.291.105.326.326,0,0,1-.194-.059.491.491,0,0,1-.138-.151l-.2-.358A3.667,3.667,0,0,1,21.6-5.8a3.519,3.519,0,0,1,1.359-.253,2.354,2.354,0,0,1,.945.179,2,2,0,0,1,.7.494,2.062,2.062,0,0,1,.428.763,3.212,3.212,0,0,1,.144.986v4.1h-.5a.494.494,0,0,1-.253-.053.386.386,0,0,1-.142-.213l-.109-.6a6.381,6.381,0,0,1-.5.408,3.038,3.038,0,0,1-.505.3,2.6,2.6,0,0,1-.561.188,3.168,3.168,0,0,1-.67.065,2.357,2.357,0,0,1-.7-.1A1.547,1.547,0,0,1,20.668.16a1.5,1.5,0,0,1-.382-.528A1.852,1.852,0,0,1,20.145-1.126Zm1.075-.063a1.051,1.051,0,0,0,.081.431.792.792,0,0,0,.223.3.888.888,0,0,0,.338.168,1.62,1.62,0,0,0,.418.052A2.39,2.39,0,0,0,22.824-.3a2.062,2.062,0,0,0,.464-.168,2.5,2.5,0,0,0,.418-.269A3.768,3.768,0,0,0,24.1-1.1V-2.411a9.46,9.46,0,0,0-1.331.122,3.825,3.825,0,0,0-.895.254,1.22,1.22,0,0,0-.5.37A.794.794,0,0,0,21.22-1.189ZM26.905.475V-5.934h1.137v2.528h3.071V-5.934h1.137V.475H31.114v-3H28.042v3ZM33.326-5.05v-.884h6.038v.884H36.91V.475H35.773V-5.05Zm6.551,3.924a1.42,1.42,0,0,1,.207-.729,1.807,1.807,0,0,1,.677-.624,4.512,4.512,0,0,1,1.22-.448,9.16,9.16,0,0,1,1.851-.2v-.5a1.7,1.7,0,0,0-.325-1.128,1.174,1.174,0,0,0-.944-.38,2.026,2.026,0,0,0-.7.105,2.847,2.847,0,0,0-.489.232q-.207.127-.356.232a.5.5,0,0,1-.291.105.326.326,0,0,1-.194-.059.491.491,0,0,1-.138-.151l-.2-.358A3.667,3.667,0,0,1,41.333-5.8a3.519,3.519,0,0,1,1.359-.253,2.354,2.354,0,0,1,.945.179,2,2,0,0,1,.7.494,2.062,2.062,0,0,1,.428.763,3.212,3.212,0,0,1,.144.986v4.1h-.5a.494.494,0,0,1-.253-.053.386.386,0,0,1-.142-.213L43.9-.39a6.381,6.381,0,0,1-.5.408,3.038,3.038,0,0,1-.505.3,2.6,2.6,0,0,1-.561.188,3.168,3.168,0,0,1-.67.065,2.357,2.357,0,0,1-.7-.1A1.547,1.547,0,0,1,40.4.16a1.5,1.5,0,0,1-.382-.528A1.852,1.852,0,0,1,39.876-1.126Zm1.075-.063a1.051,1.051,0,0,0,.081.431.792.792,0,0,0,.223.3.888.888,0,0,0,.338.168,1.62,1.62,0,0,0,.418.052A2.39,2.39,0,0,0,42.556-.3a2.062,2.062,0,0,0,.464-.168,2.5,2.5,0,0,0,.418-.269,3.769,3.769,0,0,0,.393-.361V-2.411a9.46,9.46,0,0,0-1.331.122,3.825,3.825,0,0,0-.895.254,1.22,1.22,0,0,0-.5.37A.794.794,0,0,0,40.952-1.189ZM45.908.475,47.589-2.2a1.851,1.851,0,0,1,.371-.45,1.335,1.335,0,0,1,.507-.262,1.127,1.127,0,0,1-.4-.226,1.682,1.682,0,0,1-.306-.379L46.081-5.934h.89a.545.545,0,0,1,.3.082.612.612,0,0,1,.21.227l1.36,1.986a.979.979,0,0,0,.337.312.949.949,0,0,0,.46.106h.55V-5.934h1.075v2.713H51.8a.9.9,0,0,0,.81-.418l1.36-1.986a.545.545,0,0,1,.213-.227.581.581,0,0,1,.3-.082h.89L53.694-3.521a1.969,1.969,0,0,1-.318.379,1.127,1.127,0,0,1-.4.226,1.3,1.3,0,0,1,.513.259,1.833,1.833,0,0,1,.377.453L55.542.475h-.785a.915.915,0,0,1-.463-.1.616.616,0,0,1-.247-.294l-1.248-2a.994.994,0,0,0-.9-.494h-.643V.481H50.184V-2.4h-.643a1.04,1.04,0,0,0-.513.127,1.022,1.022,0,0,0-.377.368L47.4.085a.628.628,0,0,1-.253.3.94.94,0,0,1-.463.093ZM56.6.481V-5.927h1.137v4.351q0,.117-.012.263t-.031.287a1.768,1.768,0,0,1,.108-.226q.059-.1.114-.188.006-.012.145-.2l.358-.488.5-.677q.278-.377.562-.766.674-.915,1.538-2.076a1.009,1.009,0,0,1,.177-.192.361.361,0,0,1,.239-.093h.678V.475H60.98V-3.882q0-.117.012-.263t.031-.294q-.056.124-.117.232t-.117.195-.148.2q-.136.188-.358.488l-.5.677q-.278.377-.562.766Q58.545-.965,57.7.2a1,1,0,0,1-.176.192.35.35,0,0,1-.232.093ZM63.18-5.05v-.884h6.038v.884H66.764V.475H65.627V-5.05Zm7.1,5.531V-5.927h1.137v4.351q0,.117-.012.263t-.031.287a1.767,1.767,0,0,1,.108-.226q.059-.1.114-.188.006-.012.145-.2L72.1-2.13l.5-.677q.278-.377.562-.766.674-.915,1.538-2.076a1.01,1.01,0,0,1,.177-.192.361.361,0,0,1,.239-.093h.678V.475H74.656V-3.882q0-.117.012-.263t.031-.294q-.056.124-.117.232t-.117.195-.148.2q-.136.188-.358.488l-.5.677q-.278.377-.562.766Q72.221-.965,71.374.2A1,1,0,0,1,71.2.388a.35.35,0,0,1-.232.093Z" transform="translate(628.818 577.581)" fill="#1a1a1a"/>
      <path id="Контур_29745" data-name="Контур 29745" d="M2.977.114a3.1,3.1,0,0,1-1.809-.5,1.772,1.772,0,0,1-.8-1.33H1.485a1.025,1.025,0,0,0,.486.673A1.889,1.889,0,0,0,2.977-.8a1.769,1.769,0,0,0,1.1-.3.955.955,0,0,0,.394-.8A.935.935,0,0,0,4.1-2.714a1.939,1.939,0,0,0-1.124-.263h-.99v-.9h.99q1.27,0,1.27-.965a.853.853,0,0,0-.314-.692A1.429,1.429,0,0,0,3-5.8a1.811,1.811,0,0,0-.965.235.908.908,0,0,0-.451.628H.514a1.84,1.84,0,0,1,.774-1.3A2.852,2.852,0,0,1,3-6.716a2.687,2.687,0,0,1,1.714.486,1.575,1.575,0,0,1,.609,1.3,1.469,1.469,0,0,1-.3.908,1.344,1.344,0,0,1-.79.514v.051a1.727,1.727,0,0,1,.981.536,1.447,1.447,0,0,1,.34.974A1.824,1.824,0,0,1,4.846-.454,2.9,2.9,0,0,1,2.977.114Z" transform="translate(712 578)" fill="#1a1a1a"/>
      <path id="Контур_29741" data-name="Контур 29741" d="M9.955,0,8.73-3.618h-5.1L2.4,0H.241L5.075-13.387H7.32L12.153,0Zm-3.8-11.161L4.156-5.288H8.2L6.207-11.161Zm12.32,1.243a3.674,3.674,0,0,1,2.987,1.364A5.605,5.605,0,0,1,22.581-4.88,5.656,5.656,0,0,1,21.468-1.2,3.623,3.623,0,0,1,18.508.167a3.557,3.557,0,0,1-1.842-.473,3.168,3.168,0,0,1-1.229-1.3h-.046V3.229h-2V-9.76h1.939v1.679h.037a3.283,3.283,0,0,1,1.252-1.345A3.526,3.526,0,0,1,18.471-9.917Zm-.529,8.387a2.251,2.251,0,0,0,1.883-.9,3.911,3.911,0,0,0,.7-2.445,3.915,3.915,0,0,0-.7-2.44,2.247,2.247,0,0,0-1.883-.909,2.227,2.227,0,0,0-1.855.918,3.887,3.887,0,0,0-.705,2.431,3.9,3.9,0,0,0,.7,2.435A2.228,2.228,0,0,0,17.942-1.531ZM29.205-9.917a3.674,3.674,0,0,1,2.987,1.364A5.605,5.605,0,0,1,33.315-4.88,5.656,5.656,0,0,1,32.2-1.2,3.623,3.623,0,0,1,29.242.167,3.557,3.557,0,0,1,27.4-.306a3.168,3.168,0,0,1-1.229-1.3h-.046V3.229h-2V-9.76H26.06v1.679H26.1A3.283,3.283,0,0,1,27.35-9.426,3.526,3.526,0,0,1,29.205-9.917Zm-.529,8.387a2.251,2.251,0,0,0,1.883-.9,3.911,3.911,0,0,0,.7-2.445,3.915,3.915,0,0,0-.7-2.44,2.247,2.247,0,0,0-1.883-.909,2.227,2.227,0,0,0-1.855.918,3.887,3.887,0,0,0-.705,2.431,3.9,3.9,0,0,0,.7,2.435A2.228,2.228,0,0,0,28.676-1.531Zm9.676-2.2H40.4a2.161,2.161,0,0,0,.993,1.6,3.822,3.822,0,0,0,2.208.6,3.5,3.5,0,0,0,2.083-.584A1.759,1.759,0,0,0,46.507-3.6a1.6,1.6,0,0,0-.584-1.276,4.648,4.648,0,0,0-1.883-.812L42.3-6.1a5.651,5.651,0,0,1-2.723-1.327,3.1,3.1,0,0,1-.877-2.282,3.433,3.433,0,0,1,1.359-2.811,5.454,5.454,0,0,1,3.511-1.085,5.314,5.314,0,0,1,3.451,1.081,3.583,3.583,0,0,1,1.382,2.816H46.387a2.119,2.119,0,0,0-.858-1.568,3.21,3.21,0,0,0-1.981-.575,3.228,3.228,0,0,0-1.962.557,1.719,1.719,0,0,0-.756,1.447A1.411,1.411,0,0,0,41.4-8.7a5.065,5.065,0,0,0,1.865.775l1.475.362A6.393,6.393,0,0,1,47.709-6.2a3.107,3.107,0,0,1,.914,2.352A3.59,3.59,0,0,1,47.231-.877a5.931,5.931,0,0,1-3.776,1.1A5.761,5.761,0,0,1,39.832-.849,3.709,3.709,0,0,1,38.353-3.729Zm12.478-8.34h2.013v2.31H54.7v1.586H52.844v5.381a1.292,1.292,0,0,0,.288.928,1.2,1.2,0,0,0,.9.3,3.389,3.389,0,0,0,.659-.046V-.028a4.945,4.945,0,0,1-1.113.093,3,3,0,0,1-2.111-.608,2.717,2.717,0,0,1-.635-2.027v-5.6H49.411V-9.76h1.419Zm12.84,10.9A4.383,4.383,0,0,1,60.3.186a4.375,4.375,0,0,1-3.368-1.359A5.234,5.234,0,0,1,55.673-4.88a5.22,5.22,0,0,1,1.262-3.7A4.375,4.375,0,0,1,60.3-9.936,4.375,4.375,0,0,1,63.67-8.577a5.22,5.22,0,0,1,1.262,3.7A5.251,5.251,0,0,1,63.67-1.169Zm-3.368-.3a2.264,2.264,0,0,0,1.893-.9,4.024,4.024,0,0,0,.7-2.514,3.988,3.988,0,0,0-.7-2.5,2.268,2.268,0,0,0-1.888-.9,2.268,2.268,0,0,0-1.888.9,3.988,3.988,0,0,0-.7,2.5,4,4,0,0,0,.7,2.514A2.268,2.268,0,0,0,60.3-1.466ZM66.481,0V-9.76h1.911V-8.1h.046A2.49,2.49,0,0,1,69.3-9.435a2.349,2.349,0,0,1,1.484-.482,3.836,3.836,0,0,1,.687.074v1.865a2.578,2.578,0,0,0-.9-.111,1.983,1.983,0,0,0-1.526.6,2.315,2.315,0,0,0-.561,1.642V0Zm11.6-7.617a2.219,2.219,0,0,0-1.7-.705,2.3,2.3,0,0,0-1.726.71,2.806,2.806,0,0,0-.761,1.832h4.88A2.72,2.72,0,0,0,78.078-7.617Zm.687,4.75h1.9a3.293,3.293,0,0,1-1.373,2.2,4.642,4.642,0,0,1-2.83.854,4.333,4.333,0,0,1-3.372-1.35,5.243,5.243,0,0,1-1.229-3.669,5.409,5.409,0,0,1,1.229-3.7,4.157,4.157,0,0,1,3.289-1.4,4.1,4.1,0,0,1,3.21,1.322,5.112,5.112,0,0,1,1.188,3.549v.687H73.885v.121a2.9,2.9,0,0,0,.714,2.05,2.482,2.482,0,0,0,1.911.77,2.609,2.609,0,0,0,1.447-.39A1.883,1.883,0,0,0,78.765-2.867Z" transform="translate(628 598)" fill="#1a1a1a"/>
    </g>
  </g>
</svg>
