<svg xmlns="http://www.w3.org/2000/svg" xmlns:xlink="http://www.w3.org/1999/xlink" width="170" height="47" viewBox="0 0 170 47">
  <defs>
    <linearGradient id="linear-gradient" x1="0.5" x2="0.5" y2="1" gradientUnits="objectBoundingBox">
      <stop offset="0" stop-color="#fb6361"/>
      <stop offset="1" stop-color="#ed3e45"/>
    </linearGradient>
  </defs>
  <g id="Сгруппировать_44148" data-name="Сгруппировать 44148" transform="translate(-869 -592)">
    <rect id="Прямоугольник_3390" data-name="Прямоугольник 3390" width="170" height="47" rx="10" transform="translate(869 592)" fill="#fff"/>
    <g id="Сгруппировать_43556" data-name="Сгруппировать 43556" transform="translate(-67 30.458)">
      <path id="Контур_29746" data-name="Контур 29746" d="M2.926-3.371a7.441,7.441,0,0,1-.187,1.377,2.35,2.35,0,0,1-.454.914v.051H6.729v-7.1h-3.5ZM1.25,0V1.809H.19V-1.028H.87a1.526,1.526,0,0,0,.7-.835A5.19,5.19,0,0,0,1.854-3.4L2.2-9.16H7.871v8.131H9.014V1.809H7.954V0ZM12.911.114a2.855,2.855,0,0,1-2.222-.924A3.567,3.567,0,0,1,9.852-3.3a3.567,3.567,0,0,1,.838-2.491,2.855,2.855,0,0,1,2.222-.924,2.847,2.847,0,0,1,2.215.924A3.567,3.567,0,0,1,15.964-3.3a3.57,3.57,0,0,1-.838,2.488A2.843,2.843,0,0,1,12.911.114ZM11.5-1.5a1.731,1.731,0,0,0,1.416.647A1.716,1.716,0,0,0,14.32-1.5a2.791,2.791,0,0,0,.521-1.8,2.791,2.791,0,0,0-.521-1.8,1.716,1.716,0,0,0-1.409-.644A1.722,1.722,0,0,0,11.5-5.1a2.782,2.782,0,0,0-.524,1.8A2.794,2.794,0,0,0,11.5-1.5ZM22.655-4.57H21.563a1.63,1.63,0,0,0-.578-.844,1.718,1.718,0,0,0-1.085-.33,1.665,1.665,0,0,0-1.384.67A2.812,2.812,0,0,0,18-3.3a2.792,2.792,0,0,0,.524,1.784,1.689,1.689,0,0,0,1.393.66,1.811,1.811,0,0,0,1.076-.3,1.533,1.533,0,0,0,.587-.857h1.092a2.426,2.426,0,0,1-.914,1.542,2.892,2.892,0,0,1-1.847.59A2.816,2.816,0,0,1,17.7-.809,3.6,3.6,0,0,1,16.872-3.3,3.612,3.612,0,0,1,17.7-5.78a2.783,2.783,0,0,1,2.2-.936,2.789,2.789,0,0,1,1.869.622A2.526,2.526,0,0,1,22.655-4.57Zm2.856,1.657A10.127,10.127,0,0,1,25.387-1.9a4.549,4.549,0,0,1-.225.819A2.075,2.075,0,0,1,24.8-.46a1.456,1.456,0,0,1-.527.381,1.81,1.81,0,0,1-.727.136,1.007,1.007,0,0,1-.394-.07v-1a1.059,1.059,0,0,0,.336.051.738.738,0,0,0,.692-.5,4.426,4.426,0,0,0,.292-1.476L24.73-6.6h4.323V0H27.961V-5.694H25.714ZM30.672,0V-6.6h1.1V0Zm.552-7.712a.659.659,0,0,1-.482-.2.659.659,0,0,1-.2-.482.656.656,0,0,1,.2-.486.664.664,0,0,1,.482-.2.672.672,0,0,1,.489.2.656.656,0,0,1,.2.486.659.659,0,0,1-.2.482A.666.666,0,0,1,31.224-7.712Zm6.544,6.8V-5.694H35.293l-.2,2.78a3.79,3.79,0,0,1-.54,1.955v.051ZM33.763,1.746H32.735V-.908h.552q.667-.438.781-2.031L34.322-6.6h4.545V-.908h1.047V1.746H38.886V0H33.763ZM46.617-3.479,49.6,0H48.185L45.519-3.174h-.051V0H44.376V-3.174h-.044L41.666,0h-1.4l2.964-3.459L40.339-6.6H41.7l2.634,2.92h.044V-6.6h1.092v2.92h.051L48.153-6.6H49.5Zm4.335,5.948a2.367,2.367,0,0,1-.476-.038V1.5a2.245,2.245,0,0,0,.432.032,1.087,1.087,0,0,0,.743-.244,1.849,1.849,0,0,0,.47-.822l.152-.463L49.835-6.6h1.181l1.828,5.5h.019l1.828-5.5h1.162L53.257.463a3.888,3.888,0,0,1-.917,1.581A2.056,2.056,0,0,1,50.953,2.469ZM57.929,0H56.837V-6.6h1.092v4.913h.051L61.28-6.6h1.092V0H61.28V-4.913h-.051Zm-.248-9.458h.813a1.346,1.346,0,0,0,.34.939,1.147,1.147,0,0,0,.892.375,1.147,1.147,0,0,0,.892-.375,1.346,1.346,0,0,0,.34-.939h.813A1.883,1.883,0,0,1,61.2-8.036a2.041,2.041,0,0,1-1.476.546,2.041,2.041,0,0,1-1.476-.546A1.883,1.883,0,0,1,57.681-9.458Z" transform="translate(995 579)" fill="#1a1a1a"/>
      <path id="Контур_29743" data-name="Контур 29743" d="M9.955,0,8.73-3.618h-5.1L2.4,0H.241L5.075-13.387H7.32L12.153,0Zm-3.8-11.161L4.156-5.288H8.2L6.207-11.161Zm12.32,1.243a3.674,3.674,0,0,1,2.987,1.364A5.605,5.605,0,0,1,22.581-4.88,5.656,5.656,0,0,1,21.468-1.2,3.623,3.623,0,0,1,18.508.167a3.557,3.557,0,0,1-1.842-.473,3.168,3.168,0,0,1-1.229-1.3h-.046V3.229h-2V-9.76h1.939v1.679h.037a3.283,3.283,0,0,1,1.252-1.345A3.526,3.526,0,0,1,18.471-9.917Zm-.529,8.387a2.251,2.251,0,0,0,1.883-.9,3.911,3.911,0,0,0,.7-2.445,3.915,3.915,0,0,0-.7-2.44,2.247,2.247,0,0,0-1.883-.909,2.227,2.227,0,0,0-1.855.918,3.887,3.887,0,0,0-.705,2.431,3.9,3.9,0,0,0,.7,2.435A2.228,2.228,0,0,0,17.942-1.531ZM29.205-9.917a3.674,3.674,0,0,1,2.987,1.364A5.605,5.605,0,0,1,33.315-4.88,5.656,5.656,0,0,1,32.2-1.2,3.623,3.623,0,0,1,29.242.167,3.557,3.557,0,0,1,27.4-.306a3.168,3.168,0,0,1-1.229-1.3h-.046V3.229h-2V-9.76H26.06v1.679H26.1A3.283,3.283,0,0,1,27.35-9.426,3.526,3.526,0,0,1,29.205-9.917Zm-.529,8.387a2.251,2.251,0,0,0,1.883-.9,3.911,3.911,0,0,0,.7-2.445,3.915,3.915,0,0,0-.7-2.44,2.247,2.247,0,0,0-1.883-.909,2.227,2.227,0,0,0-1.855.918,3.887,3.887,0,0,0-.705,2.431,3.9,3.9,0,0,0,.7,2.435A2.228,2.228,0,0,0,28.676-1.531ZM46.628-5.566A5.769,5.769,0,0,1,45.1-1.313,5.717,5.717,0,0,1,40.857.223,5.816,5.816,0,0,1,36.3-1.656a7.357,7.357,0,0,1-1.684-5.1,7.176,7.176,0,0,1,1.675-5.01A5.826,5.826,0,0,1,40.83-13.61a5.964,5.964,0,0,1,3.79,1.215,5.055,5.055,0,0,1,1.906,3.219H44.392a3.575,3.575,0,0,0-1.308-1.93,3.694,3.694,0,0,0-2.245-.687,3.678,3.678,0,0,0-3.01,1.331,5.661,5.661,0,0,0-1.09,3.688,5.891,5.891,0,0,0,1.113,3.79A3.672,3.672,0,0,0,40.876-1.6a3.757,3.757,0,0,0,2.653-.951,3.268,3.268,0,0,0,1.048-2.472v-.232h-3.46V-6.93h5.511ZM51.8-1.419a2.564,2.564,0,0,0,1.777-.645,2.053,2.053,0,0,0,.719-1.591v-.77l-2.4.148a2.541,2.541,0,0,0-1.387.441,1.206,1.206,0,0,0-.487,1.007A1.241,1.241,0,0,0,50.5-1.8,2.028,2.028,0,0,0,51.8-1.419ZM51.239.167A3.362,3.362,0,0,1,48.9-.649a2.728,2.728,0,0,1-.9-2.125,2.471,2.471,0,0,1,.946-2.036,4.611,4.611,0,0,1,2.681-.849l2.672-.158v-.751a1.614,1.614,0,0,0-.52-1.276A2.1,2.1,0,0,0,52.333-8.3a2.336,2.336,0,0,0-1.387.38,1.653,1.653,0,0,0-.673,1.048H48.381A2.927,2.927,0,0,1,49.55-9.083a4.491,4.491,0,0,1,2.857-.854,4.291,4.291,0,0,1,2.825.872,2.88,2.88,0,0,1,1.053,2.338V0h-1.92V-1.6h-.046a3.117,3.117,0,0,1-1.266,1.29A3.613,3.613,0,0,1,51.239.167ZM58.3,0V-13.387h2V0Zm4.138,0V-13.387h2V0ZM72.28-7.617a2.219,2.219,0,0,0-1.7-.705,2.3,2.3,0,0,0-1.726.71A2.806,2.806,0,0,0,68.1-5.78h4.88A2.72,2.72,0,0,0,72.28-7.617Zm.687,4.75h1.9A3.293,3.293,0,0,1,73.5-.668a4.642,4.642,0,0,1-2.83.854,4.333,4.333,0,0,1-3.372-1.35,5.243,5.243,0,0,1-1.229-3.669,5.409,5.409,0,0,1,1.229-3.7,4.157,4.157,0,0,1,3.289-1.4,4.1,4.1,0,0,1,3.21,1.322,5.112,5.112,0,0,1,1.188,3.549v.687H68.086v.121a2.9,2.9,0,0,0,.714,2.05,2.482,2.482,0,0,0,1.911.77,2.609,2.609,0,0,0,1.447-.39A1.883,1.883,0,0,0,72.966-2.867ZM76.529,0V-9.76H78.44V-8.1h.046a2.49,2.49,0,0,1,.863-1.336,2.349,2.349,0,0,1,1.484-.482,3.836,3.836,0,0,1,.687.074v1.865a2.578,2.578,0,0,0-.9-.111,1.983,1.983,0,0,0-1.526.6,2.315,2.315,0,0,0-.561,1.642V0Zm7.2,3.637a5.026,5.026,0,0,1-.816-.046V1.967A3.442,3.442,0,0,0,83.561,2a1.719,1.719,0,0,0,1.1-.32A2.149,2.149,0,0,0,85.3.612q0-.009.093-.306l.083-.3L81.947-9.76h2.171l2.477,7.941h.028L89.1-9.76h2.115L87.55.51a5.445,5.445,0,0,1-1.457,2.449A3.666,3.666,0,0,1,83.728,3.637Z" transform="translate(995 598)" fill="#1a1a1a"/>
    </g>
    <g id="ic_ag" transform="translate(881 599)">
      <g id="编组" transform="translate(2 2)">
        <path id="Fill-1" d="M8.418,0C2.254,0,0,2.254,0,8.416V21.584C0,27.746,2.254,30,8.418,30H21.578C27.742,30,30,27.746,30,21.584V8.416C30,2.254,27.746,0,21.583,0Z" transform="translate(0)" fill-rule="evenodd" fill="url(#linear-gradient)"/>
        <path id="path14" d="M13.753,20.4h1.2l-.6-1.405Zm-.3.708-.357.818h-.814L14.015,18h.7l1.723,3.925h-.835l-.353-.818Zm13.091.815h.786V18h-.786Zm-3.129-1.685h1.449v-.715H23.418v-.8h2.1V18h-2.89v3.922H25.6V21.21h-2.18Zm-3.124.463L19.4,18h-.651l-.891,2.7L16.992,18h-.848l1.369,3.925h.659l.893-2.578.893,2.578h.665L21.989,18h-.826Zm-9.209-.453c0,.638-.317.98-.893.98s-.9-.351-.9-1.007V18H8.5v2.246a1.558,1.558,0,0,0,1.684,1.738,1.58,1.58,0,0,0,1.7-1.771V18h-.8ZM6.6,18h.8v3.927H6.6v-1.6H4.8v1.6H4V18h.8v1.584H6.6Z" transform="translate(-0.667 -3)" fill="#fff" fill-rule="evenodd"/>
        <path id="Fill-3" d="M17,11a5.005,5.005,0,0,1-5-5h.706a4.294,4.294,0,0,0,8.587,0H22a5.006,5.006,0,0,1-5,5" transform="translate(-2 -1)" fill="#fff" fill-rule="evenodd"/>
      </g>
    </g>
  </g>
</svg>
