<svg xmlns="http://www.w3.org/2000/svg" xmlns:xlink="http://www.w3.org/1999/xlink" width="485.42" height="364.969" viewBox="0 0 485.42 364.969">
  <defs>
    <clipPath id="clip-path">
      <rect id="Прямоугольник_12071" data-name="Прямоугольник 12071" width="485.42" height="364.969" fill="none"/>
    </clipPath>
    <clipPath id="clip-path-3">
      <rect id="Прямоугольник_12060" data-name="Прямоугольник 12060" width="281.76" height="216.955" fill="none"/>
    </clipPath>
    <clipPath id="clip-path-5">
      <rect id="Прямоугольник_12062" data-name="Прямоугольник 12062" width="24.646" height="28.863" fill="none"/>
    </clipPath>
    <clipPath id="clip-path-6">
      <rect id="Прямоугольник_12063" data-name="Прямоугольник 12063" width="9.474" height="20.19" fill="#d6c0b4"/>
    </clipPath>
    <clipPath id="clip-path-7">
      <rect id="Прямоугольник_12066" data-name="Прямоугольник 12066" width="424.066" height="6.182" fill="#efefef"/>
    </clipPath>
    <filter id="Контур_30103" x="307.302" y="156.829" width="55.665" height="45.132" filterUnits="userSpaceOnUse">
      <feOffset dy="3" input="SourceAlpha"/>
      <feGaussianBlur stdDeviation="3" result="blur"/>
      <feFlood flood-opacity="0.059"/>
      <feComposite operator="in" in2="blur"/>
      <feComposite in="SourceGraphic"/>
    </filter>
  </defs>
  <g id="Сгруппировать_44082" data-name="Сгруппировать 44082" style="mix-blend-mode: normal;isolation: isolate">
    <g id="Сгруппировать_44081" data-name="Сгруппировать 44081" clip-path="url(#clip-path)">
      <g id="Сгруппировать_44067" data-name="Сгруппировать 44067">
        <g id="Сгруппировать_44066" data-name="Сгруппировать 44066" clip-path="url(#clip-path)">
          <path id="Контур_30036" data-name="Контур 30036" d="M83.183,345.736S22.736,302.69,5.334,229.42,14.493,67.311,64.866,22.433,205.91,7.78,246.208,45.331l40.3,37.551s38.467,21.065,88.84,19.233S470.6,168.973,482.5,223.009s-16.486,125.475-16.486,125.475Z" transform="translate(0 0)" fill="#fff"/>
          <g id="Сгруппировать_44062" data-name="Сгруппировать 44062" transform="translate(0.945 2.623)" style="mix-blend-mode: multiply;isolation: isolate">
            <g id="Сгруппировать_44061" data-name="Сгруппировать 44061">
              <g id="Сгруппировать_44083" data-name="Сгруппировать 44083">
                <path id="Контур_30037" data-name="Контур 30037" d="M55.616,356.474s-42.13-22.9-53.121-76.018S39.13,178.795,43.709,152.234,38.214,92.7,80.345,67.059s117.232-16.486,145.623-22.9,61.363-50.373,118.148-40.3S455.852,44.162,458.6,110.1s-18.318,67.775,2.748,103.494,29.307,60.447,19.233,97.082-31.14,46.71-31.14,46.71Z" transform="translate(-0.854 -2.37)" fill="none"/>
              </g>
            </g>
          </g>
          <g id="Сгруппировать_44065" data-name="Сгруппировать 44065" transform="translate(125.314 139.771)" style="mix-blend-mode: multiply;isolation: isolate">
            <g id="Сгруппировать_44064" data-name="Сгруппировать 44064">
              <g id="Сгруппировать_44063" data-name="Сгруппировать 44063" clip-path="url(#clip-path-3)">
                <path id="Контур_30038" data-name="Контур 30038" d="M131.6,331.347c-2.621-2.748-41.058-79.681,1.747-150.2S283.6,118.864,326.4,146.341s63.771,63.195,68.139,100.745-24.461,96.167-24.461,96.167Z" transform="translate(-113.234 -126.298)" fill="#d9dee5"/>
              </g>
            </g>
          </g>
        </g>
      </g>
      <g id="Сгруппировать_44078" data-name="Сгруппировать 44078">
        <g id="Сгруппировать_44077" data-name="Сгруппировать 44077" clip-path="url(#clip-path)">
          <path id="Объединение_72" data-name="Объединение 72" d="M1508.959,6216.9h-18.8a5.534,5.534,0,0,1-5.534-5.534v-24.653a5.535,5.535,0,0,1,5.534-5.532h49.381a5.533,5.533,0,0,1,5.532,5.532v24.653a5.532,5.532,0,0,1-5.532,5.534h-18.8l-5.893,13.967Z" transform="translate(-1094.475 -6001.6)" fill="#0ab97f"/>
          <path id="Контур_30041" data-name="Контур 30041" d="M379.685,173.438h14.136v2.068l6.93-4-6.93-4v2.068H379.685Z" transform="translate(40.504 17.87)" fill="#1a1a1a"/>
          <path id="Контур_30042" data-name="Контур 30042" d="M400.751,180.41H386.615v-2.068l-6.93,4,6.93,4v-2.068h14.136Z" transform="translate(40.504 19.025)" fill="#fff"/>
          <path id="Контур_30043" data-name="Контур 30043" d="M372.822,185.223l-.673.245a21.347,21.347,0,0,1-3.186-5,17.953,17.953,0,0,1-1.127-5.793l.491-.2-2.989-7.154a5.874,5.874,0,0,0-1.451,1.646c-1.692,2.859-1.524,7.245.177,11.53S367.586,188.6,370.9,191a6.559,6.559,0,0,0,4.941,1.461Z" transform="translate(38.692 17.849)" fill="#fff"/>
          <path id="Контур_30044" data-name="Контур 30044" d="M373.875,182.745l-.93.338,3.06,7.324a5.431,5.431,0,0,0,.925-.4,1.782,1.782,0,0,0,.8-2.22l-1.6-4.026a1.778,1.778,0,0,0-2.261-1.016" transform="translate(39.785 19.484)" fill="#fff"/>
          <path id="Контур_30045" data-name="Контур 30045" d="M367.31,166.19a7.02,7.02,0,0,0-1.2.562l3.052,7.306,1.028-.429a1.78,1.78,0,0,0,.972-2.287l-1.6-4.119a1.775,1.775,0,0,0-2.25-1.033" transform="translate(39.056 17.718)" fill="#fff"/>
          <path id="Контур_30046" data-name="Контур 30046" d="M116.925,311.489V229.06s-.916-22.21,10.761-28.621,60.906-2.977,60.906-2.977V311.489Z" transform="translate(12.472 20.967)" fill="#9b9ea5"/>
          <path id="Контур_30047" data-name="Контур 30047" d="M196.638,127.65s-2.977,24.958-4.122,27.018l-1.144,2.061-5.724,3.892s10.99,15.57,24.5,18.089,12.365-5.5,12.365-5.5l-2.061-4.35,2.748-23.812s-24.5-11.22-26.56-17.4" transform="translate(19.805 13.618)" fill="#ffc7aa"/>
          <path id="Контур_30048" data-name="Контур 30048" d="M179.234,159.68l8.93-3.892s5.724,9.388,19,14.883,13.509,2.29,14.2,0a8.7,8.7,0,0,0-.229-4.809l.983-8.017,5.311,1.771,18.435,149.123-47.4,2.29Z" transform="translate(19.12 16.619)" fill="#fff"/>
          <path id="Контур_30049" data-name="Контур 30049" d="M218.751,157.788s3.2,7.4,6.182,24.805,5.725,46.71,6.411,66.859,1.145,66.172,1.145,66.172H292.25c.686,0,4.809-22.668,4.809-22.668s-26.1-22.363-27.477-26.026c-.916-2.442-.458-47.7-4.35-68.538s-8.93-25.034-19.462-30.224c-10.885-5.363-27.018-10.38-27.018-10.38" transform="translate(23.336 16.833)" fill="#1a1a1a"/>
          <path id="Контур_30050" data-name="Контур 30050" d="M247.052,285.946a.554.554,0,0,1-.553-.553c0-1.638-.291-24.9-.572-47.389s-.572-45.759-.572-47.4a.553.553,0,0,1,1.107,0c0,1.637.291,24.9.571,47.389s.573,45.759.573,47.4a.554.554,0,0,1-.553.553" transform="translate(26.174 20.274)" fill="#434343"/>
          <path id="Контур_30051" data-name="Контур 30051" d="M139.347,271.651l-.458,31.827H208.5s2.976-27.018,1.832-29.537-70.98-2.29-70.98-2.29" transform="translate(14.816 28.979)" fill="#1a1a1a"/>
          <g id="Сгруппировать_44070" data-name="Сгруппировать 44070" transform="translate(218.357 143.967)" opacity="0.255" style="mix-blend-mode: multiply;isolation: isolate">
            <g id="Сгруппировать_44069" data-name="Сгруппировать 44069">
              <g id="Сгруппировать_44068" data-name="Сгруппировать 44068" clip-path="url(#clip-path-5)">
                <path id="Контур_30052" data-name="Контур 30052" d="M210.583,153.721a36.428,36.428,0,0,0,9.738,5.231l1.635-14.161s-18.4-8.43-24.647-14.7c1.3,7.127,4.514,16.569,13.275,23.632" transform="translate(-197.308 -130.089)" fill="#8e9bbb"/>
              </g>
            </g>
          </g>
          <path id="Контур_30053" data-name="Контур 30053" d="M244.047,86.144a49.536,49.536,0,0,1,5.724,18.318c.916,10.074,0,35.947-8.243,46.938s-25.415,7.785-33.2,1.145c-7.145-6.094-14.2-12.822-16.028-26.1s3.893-38.467,20.149-43.734,31.6,3.435,31.6,3.435" transform="translate(20.479 8.643)" fill="#ffc7aa"/>
          <path id="Контур_30054" data-name="Контур 30054" d="M263.5,289.262s-.808,0-2.036-.033c-.288-.011-.609,0-.941-.011-1.184-.033-2.623-.066-4.073-.111l-.974-.033c-1.439-.033-2.667.144-3.818.077h-.033c-.243-.011-.6.022-.885.033a2.156,2.156,0,0,1-.365.011,5.377,5.377,0,0,1-1.516-.6,102.945,102.945,0,0,0-23.749-3.165c-10.226.044-19.4.741-20.894-.509-1.505-1.273-2.413-14.121,6.319-14.962l10.735,4.073s24.513-2.911,33.5,3.719c9.008,6.629,8.732,11.509,8.732,11.509" transform="translate(21.682 28.799)" fill="#ffc7aa"/>
          <path id="Контур_30055" data-name="Контур 30055" d="M248.313,288c-.243-.011-.6.022-.885.033a10.388,10.388,0,0,0-.941-1.262c-2.767-2.822-9.451-4.648-11.875-5.235a.416.416,0,0,1-.31-.5.425.425,0,0,1,.509-.31c3.53.852,11.022,3.032,13.147,6.607.066.1.243.443.354.664" transform="translate(24.994 29.947)" fill="#edb79b"/>
          <path id="Контур_30056" data-name="Контур 30056" d="M252.837,288.227c-.322-.008-.654-.015-.975-.034-3.02-5.509-7.963-7.092-14.07-9.056l-.362-.12a.416.416,0,1,1,.262-.79l.352.12c6.459,2.072,11.653,3.737,14.793,9.88" transform="translate(25.298 29.679)" fill="#edb79b"/>
          <path id="Контур_30057" data-name="Контур 30057" d="M257.511,288.589c-.288-.007-.609,0-.941-.012-1.833-3.852-7.9-10.3-15.919-11.8a.416.416,0,0,1-.343-.485.428.428,0,0,1,.485-.331c8.265,1.552,14.93,8.3,16.718,12.628" transform="translate(25.635 29.438)" fill="#edb79b"/>
          <path id="Контур_30058" data-name="Контур 30058" d="M198.825,116.718s5.038-2.4,8.587-9.158A26.074,26.074,0,0,0,210.5,94.737s6.411-1.03,16.027,1.832,21.066,6.755,30.683,1.259,9.616-14.31,4.923-17.974c-5.257-4.1-15.685-1.6-15.685-1.6s4.007-3.892,1.833-6.182-10.075.687-10.075.687-9.617-7.67-27.82-6.755-26.9,13.623-27.934,27.82,4.121,28.392,4.121,28.392Z" transform="translate(19.449 7.033)" fill="#2e2d2d"/>
          <g id="Сгруппировать_44073" data-name="Сгруппировать 44073" transform="translate(250.497 126.914)" style="mix-blend-mode: multiply;isolation: isolate">
            <g id="Сгруппировать_44072" data-name="Сгруппировать 44072">
              <g id="Сгруппировать_44071" data-name="Сгруппировать 44071" clip-path="url(#clip-path-6)">
                <path id="Контур_30059" data-name="Контур 30059" d="M231.058,114.959c-1.031,2.543-1.006,5.495-1.266,8.194-.2,2.1-.588,4.548,1.336,5.965.919.677,5.264,2.5,3.03,3.984-.852.564-2.281.409-3.25.365-.668-.032-1.344-.06-2.011-.11-.718-.053-1.422-.27-2.14-.273a.419.419,0,0,0-.21.774,9.041,9.041,0,0,0,4.2,1,6.337,6.337,0,0,0,3.476-.612,2.486,2.486,0,0,0,1.588-1.781,2.844,2.844,0,0,0-1.368-2.451c-.865-.642-1.928-.941-2.8-1.567-1.212-.868-1.112-2.33-1.027-3.683.2-3.255.953-6.454,1.244-9.695.045-.5-.641-.5-.8-.108" transform="translate(-226.35 -114.68)" fill="#d6c0b4"/>
              </g>
            </g>
          </g>
          <path id="Контур_30060" data-name="Контур 30060" d="M239.553,122.194c-.342,1.93-1.745,3.3-3.136,3.049s-2.241-2.01-1.9-3.94,1.745-3.3,3.136-3.049,2.241,2.01,1.9,3.94" transform="translate(25.01 12.612)" fill="#2e2d2d"/>
          <path id="Контур_30061" data-name="Контур 30061" d="M223.758,120.835c-.31,2.083-1.777,3.589-3.277,3.367s-2.466-2.093-2.156-4.174,1.777-3.59,3.278-3.367,2.465,2.092,2.155,4.174" transform="translate(23.285 12.443)" fill="#2e2d2d"/>
          <path id="Контур_30062" data-name="Контур 30062" d="M235.451,114.887c1.07.18,2.149,0,3.229.072.259.019.516.056.774.082.184.018-.343-.054-.086-.012l.165.027c.135.024.27.052.4.085.229.055.452.142.682.193a2.627,2.627,0,0,0,.652.084l.353-.046-.222.04a2.145,2.145,0,0,0,.438-.048,1.191,1.191,0,0,0,.822-1.446,1.385,1.385,0,0,0-.235-.467c-.045-.06-.092-.12-.139-.178l.129.148c-.045-.064-.093-.126-.143-.188a.69.69,0,0,0-.245-.245c-.085-.065-.17-.135-.259-.2a3.113,3.113,0,0,0-.993-.4,8.191,8.191,0,0,0-1.968-.252,13.673,13.673,0,0,0-1.948.155,3.748,3.748,0,0,0-1.669.618,1.107,1.107,0,0,0-.517,1.077,1.062,1.062,0,0,0,.775.9" transform="translate(25.034 11.963)" fill="#2e2d2d"/>
          <path id="Контур_30063" data-name="Контур 30063" d="M225.282,111.976a4.494,4.494,0,0,0-.447-.231c-.131-.06-.485-.246-.217-.1-.1-.053-.195-.107-.293-.157a6.762,6.762,0,0,0-1.383-.5,9.2,9.2,0,0,0-3.216-.22,7.47,7.47,0,0,0-3.177.994,2.025,2.025,0,0,0-.4.283c-.079.1-.156.2-.231.3.021-.033.043-.066.065-.1a1.127,1.127,0,0,0-.48.933.93.93,0,0,0,.495.824,1.4,1.4,0,0,0,1.112.009h-.579a2.077,2.077,0,0,0,.862-.008c.012,0,.309-.076.113-.035s.312-.038.366-.045.407-.043.043-.008c.067-.007.134-.015.2-.024.174-.021.345-.042.519-.056.756-.06,1.51-.094,2.266-.118.7-.023,1.419-.029,2.12,0,.3.013.6.023.9.032.17,0,.1.031-.018-.006.061.019.126.031.188.048.125.035.248.075.37.122a1.053,1.053,0,0,0,1.254-.615,1.067,1.067,0,0,0-.435-1.328" transform="translate(22.989 11.812)" fill="#2e2d2d"/>
          <path id="Контур_30064" data-name="Контур 30064" d="M230.12,141.107c1.05-2.113,2.617-2.982,4.827-3.979-.971-.1-4.317.916-7.369.649-2.357-.207-4.418-1.7-5.547-1.063-2.561,1.454.81,6.594,6.106,6.888a12.35,12.35,0,0,0,1.983,0c.044-1.066-.488-1.514,0-2.5" transform="translate(23.587 14.509)" fill="#b56a6a"/>
          <path id="Контур_30065" data-name="Контур 30065" d="M191.441,129.6s.915,3.549,6.182,7.67a61.03,61.03,0,0,0,12.9,7.136l.611-2.67s-7.9-3.435-11.564-7.213-4.121-5.839-4.121-5.839Z" transform="translate(20.423 13.728)" fill="#535353"/>
          <path id="Контур_30066" data-name="Контур 30066" d="M210.41,138.693a6.622,6.622,0,0,1,6.9,5.322c.3,2.168-1.741,4.6-6.505,2.463-5.917-2.653-4.631-7.589-.394-7.785" transform="translate(22.06 14.795)" fill="#1a1a1a"/>
          <path id="Контур_30067" data-name="Контур 30067" d="M195.357,110.006S197.186,96.848,206,87.911c16.829-17.057,31.14-16.027,31.14-16.027s-.114-2.4-5.495-4.236c-5.052-1.721-7.327-.8-7.327-.8s-13.852,1.145-25.53,14.081-12.937,29.422-12.937,29.422Z" transform="translate(19.827 7.105)" fill="#dee1eb"/>
          <path id="Контур_30068" data-name="Контур 30068" d="M195,104.4c-11.025-1.868-17.172,6.755-17.63,15.455s5.864,15.316,14.31,14.655c19-1.488,16.829-27.82,3.32-30.109" transform="translate(18.92 11.11)" fill="#dee1eb"/>
          <path id="Контур_30069" data-name="Контур 30069" d="M189.1,125.593a7.514,7.514,0,0,1-6.776-4.038,8.372,8.372,0,0,1,.322-8.652.415.415,0,1,1,.686.467,7.535,7.535,0,0,0-.279,7.788,6.67,6.67,0,0,0,6.258,3.6,7.266,7.266,0,0,0,6.011-3.245,9.173,9.173,0,0,0,.907-8.131,6.188,6.188,0,0,0-6.175-4.062.415.415,0,0,1-.11-.822A6.939,6.939,0,0,1,197,113.089a10.029,10.029,0,0,1-.995,8.888,8.076,8.076,0,0,1-6.679,3.613c-.077,0-.156,0-.234,0" transform="translate(19.338 11.57)" fill="#818fb3"/>
          <path id="Контур_30070" data-name="Контур 30070" d="M187.122,156.409s-33.429,8.243-45.107,21.523-17.172,78.766-17.4,90.9,8.243,17.172,13.28,20.607,27.248,9.616,45.107,10.532,34.8,0,34.8,0-.058-3.892,2.69-9.616c2.549-5.31,5.781-6.412,5.781-6.412l-15.341-5.495s-2.686-48.134-6.869-71.438c-4.809-26.789-16.943-50.6-16.943-50.6" transform="translate(13.293 16.685)" fill="#1a1a1a"/>
          <path id="Контур_30071" data-name="Контур 30071" d="M232.079,270.492a.554.554,0,0,1-.506-.777c3.132-7.067,6.378-20.941,8.2-30.674l.151-.787c.553-2.863,1.242-6.424-.132-8.881-.7-1.254-2.283-3.974-3.8-6.589-1.579-2.716-3.07-5.28-3.484-6.045-.807-1.5,1.732-5.488,5.407-10.965.993-1.481,1.85-2.759,2.351-3.624,1.31-2.266.438-4.343-.571-6.747l-.344-.828c-.915-2.247-1.956-4.5-2.96-6.674-.412-.89-.823-1.78-1.228-2.675q-.805-1.776-1.624-3.606a211.006,211.006,0,0,0-10.865-21.876.553.553,0,0,1,.951-.565,211.861,211.861,0,0,1,10.924,21.989q.82,1.826,1.621,3.6.609,1.338,1.225,2.667c1.012,2.188,2.056,4.451,2.981,6.721l.34.818c1.029,2.451,2.094,4.987.509,7.728-.519.9-1.386,2.191-2.39,3.686-1.916,2.856-5.9,8.8-5.352,9.823.405.75,1.892,3.307,3.466,6.015,1.525,2.622,3.112,5.349,3.815,6.6,1.572,2.811.839,6.592.252,9.631l-.151.781c-.665,3.545-4.192,21.693-8.28,30.917a.552.552,0,0,1-.506.33" transform="translate(23.746 16.952)" fill="#434343"/>
          <path id="Контур_30072" data-name="Контур 30072" d="M204.409,272.615a.551.551,0,0,1-.393-.164c-2.6-2.622-15.148-24.348-16.082-28.433-.512-2.237.772-7.909,2.013-13.4.962-4.251,1.957-8.646,1.674-9.836-.424-1.78-3.631-4.4-6.734-6.934-3.748-3.061-7.624-6.228-8.375-9.08-.853-3.241-.123-23.535.36-36.962.173-4.828.31-8.642.309-10a.553.553,0,0,1,1.107,0c0,1.381-.136,5.2-.31,10.043-.452,12.551-1.206,33.556-.4,36.641.66,2.5,4.562,5.692,8.006,8.5,3.394,2.773,6.6,5.393,7.109,7.535.343,1.439-.59,5.562-1.67,10.335-1.158,5.116-2.47,10.914-2.015,12.907.916,4.005,13.235,25.324,15.79,27.9a.554.554,0,0,1-.393.944" transform="translate(18.788 16.776)" fill="#434343"/>
          <path id="Контур_30073" data-name="Контур 30073" d="M161.08,259.246a.612.612,0,0,1-.077-.006.555.555,0,0,1-.471-.625c.407-2.878,6.758-60.2,7.05-64.595a.547.547,0,0,1,.59-.516.553.553,0,0,1,.515.589c-.292,4.4-6.651,61.795-7.057,64.677a.555.555,0,0,1-.548.476" transform="translate(17.125 20.643)" fill="#434343"/>
          <path id="Контур_30074" data-name="Контур 30074" d="M207.77,269.026a.578.578,0,0,1-.208-.04c-1.407-.571-7.626-2.668-15.5-5.323-15.891-5.359-37.653-12.7-41.792-14.848a.553.553,0,1,1,.51-.98c4.063,2.11,26.673,9.734,41.634,14.78,7.891,2.662,14.123,4.763,15.561,5.345a.554.554,0,0,1-.208,1.067" transform="translate(15.999 26.432)" fill="#434343"/>
          <path id="Контур_30075" data-name="Контур 30075" d="M201.277,288.652c-13.985,0-41.1-2.521-61.692-9.805a.554.554,0,0,1,.368-1.045c26.018,9.2,62.414,10.776,69.186,9.255a.553.553,0,1,1,.242,1.08,44.145,44.145,0,0,1-8.105.515" transform="translate(14.851 29.632)" fill="#434343"/>
          <path id="Контур_30076" data-name="Контур 30076" d="M51.277,167.251c4.341,3.819,9.841,6.267,13.65,10.682,1.5,1.737,2.845,3.587,4.237,5.408,1.013,1.326,3.716,3.525,4.156,5.191.193.734.152-.26-.042-1-.008-.031-.024-.061-.033-.092-.38-3.374-.653-6.762-.77-10.156s.092-6.784-.12-10.164c-.3-4.769-1.788-9.386-5.685-12.373-1.906-1.461-4.354-2.349-6.106-3.97-1.662-1.538-.995-3.3-.018-5.015a17.085,17.085,0,0,0,2.379-5.031,8.882,8.882,0,0,0-1.45-6.056c-2.268-3.806-7.3-8.051-12.058-7.481-3.971.475-4.421,5.055-4.365,8.248.055,3.1.362,6.2.392,9.3.031,3.191-.511,6.319-.557,9.5-.077,5.4,2.418,9.516,6.389,13.008" transform="translate(4.788 13.564)" fill="#bccae0"/>
          <path id="Контур_30077" data-name="Контур 30077" d="M92.855,214.6a50.962,50.962,0,0,1,4.3-8.2c2.34-3.6,4.934-7.1,6.505-11.13,1.6-4.112,1.369-8.51,1.527-12.842.116-3.183,1.061-6.356.807-9.546-.123-1.531-1-4.006-2.985-3.753-1.541.2-2.456,2.107-3.048,3.326a58.563,58.563,0,0,0-2.517,6.627c-.3.872-.585,1.762-.964,2.6-.221.49-.922,1.685-1.583,1.523-1.124-.279-.1-4.872.063-5.685.841-4.086,2.106-7.883,2.281-12.087.255-6.1-.219-13.352-6.181-16.685-1.559-.871-3.534-1.39-5.014-.087-1.461,1.286-1.874,3.514-2.091,5.349-.665,5.63.66,10.961,2.463,16.257,1.49,4.374,3.265,8.887,3.394,13.563.125,4.5-2.218,8.492-3.317,12.743a40.3,40.3,0,0,0-1.4,12.566c-.011,2.749.089,5.469.29,8.212.185,2.52.4,5.041.712,7.549.062.508.12,1.038.187,1.568-.968-2.332-1.307-5-2.108-7.346-1.425-4.164-3.08-8.244-4.448-12.429a103.125,103.125,0,0,0-3.69-10.264c-1.4-3.119-3.09-6.417-5.7-8.705a8.317,8.317,0,0,0-5.6-2.177,15.478,15.478,0,0,0-3.851.819,4.338,4.338,0,0,1-4.14-.728c-4.273-3.285-5.572-9.174-8.736-13.332-2.359-3.1-7.957-8.39-12.073-5.008-2.183,1.8-2.786,5.262-2.672,7.921a19.189,19.189,0,0,0,3.337,9.172c1.846,2.966,4.23,5.621,5.926,8.669a9.208,9.208,0,0,1,1,5.559,13.24,13.24,0,0,0,.336,5.612c1.958,5.544,8.074,4.771,12.832,4.916a35.6,35.6,0,0,1,10.06,1.661,11.183,11.183,0,0,1,7.334,7.219c.945,2.615,1.45,5.583,3.229,7.8a8.307,8.307,0,0,0,3.163,2.355c1.856.82,7.511,1.176,7.553.661a25.369,25.369,0,0,1,1.473-5.2c.963-3.078,2.095-6.079,3.342-9.053" transform="translate(3.548 15.775)" fill="#bccae0"/>
          <path id="Контур_30078" data-name="Контур 30078" d="M113.891,208.167c-.491-3.17-.4-6.663-1.9-9.574a.433.433,0,0,0-.584-.153c-1.076.6-1.121,2.334-1.208,3.4-.146,1.766-.038,3.537-.255,5.3a39.729,39.729,0,0,1-2.211,9.2,9.894,9.894,0,0,1-6.886,6.2,17.435,17.435,0,0,0-6.027,2.657,12.7,12.7,0,0,0-3.535,4.875c-2.224,4.987-3.284,10.562-4.314,15.891-.695,3.588-1.26,7.192-2.133,10.744a105.667,105.667,0,0,0-2.305,10.708c-.084.183-.173.363-.251.548-.228.542.621.836.913.385,3.438-5.293,7.627-10.044,13.342-12.959,2.581-1.317,6.009-1.589,8.162-3.659,1.638-1.574,1.864-3.974,1.619-6.114-.322-2.812-1.67-5.127-3.073-7.523-.771-1.316-1.682-2.727-1.371-4.326a5.579,5.579,0,0,1,2.794-3.392c2.375-1.475,5.153-2.139,7.1-4.265a11.655,11.655,0,0,0,3.009-7.092,48.91,48.91,0,0,0-.886-10.849" transform="translate(8.774 21.164)" fill="#bccae0"/>
          <path id="Контур_30079" data-name="Контур 30079" d="M70.341,224.925a45.673,45.673,0,0,0-10.818-10.017c-2.2-1.46-7.386-4.341-8.432-.033-.614,2.524,1.857,5.008,3.483,6.59,2.444,2.377,5.27,4.43,7.332,7.17-2.553.815-5.22.973-7.439,2.738-2.625,2.089-3.8,6.125-1.2,8.685a16.5,16.5,0,0,0,4.532,2.778c2.054.995,4.146,1.9,6.251,2.776,4.545,1.9,9.149,3.826,13.027,6.936,3.951,3.171,7.664,8.53,7.978,13.7.031.494-.156.043.138-.181.16.144.7-.114.7-.4a54.557,54.557,0,0,0-4.6-22.012,91.921,91.921,0,0,0-10.955-18.728" transform="translate(5.44 22.68)" fill="#bccae0"/>
          <path id="Контур_30080" data-name="Контур 30080" d="M59.009,159.232c1.674,3.474,3.425,6.868,5.283,10.256a82.57,82.57,0,0,1,4.913,9.978c1.648,4.285,3.375,8.5,5.117,12.751a125.846,125.846,0,0,1,4.728,13.5A160.268,160.268,0,0,1,84.4,233.176a111.515,111.515,0,0,1,.558,14.192c-.1,3.7-.518,7.363-.867,11.045a65.421,65.421,0,0,0-.3,11.553c.268,3.214.779,7.034,3.274,9.327a.574.574,0,0,0,.9-.692c-2.964-6.079-2.8-12.7-2.231-19.295.312-3.638.747-7.258.869-10.91a109.235,109.235,0,0,0-.464-13.931A164.842,164.842,0,0,0,81.1,207.556a121.437,121.437,0,0,0-4.42-13.314c-1.724-4.364-3.715-8.609-5.386-12.995-3.022-7.932-7.628-14.963-11.706-22.356-.211-.384-.768-.046-.582.341" transform="translate(6.291 16.932)" fill="#43578e"/>
          <path id="Контур_30081" data-name="Контур 30081" d="M82.115,220.873c.479-5.777.992-11.338,2.938-16.848.909-2.57,2.009-5.069,2.885-7.648.724-2.133,1.807-5.058,1.249-7.323a.262.262,0,0,0-.5,0c-.373,1.295-.332,2.714-.6,4.042a35.805,35.805,0,0,1-1.013,3.816c-.854,2.669-1.971,5.228-2.938,7.854a38.871,38.871,0,0,0-2.419,16.108.2.2,0,0,0,.4,0" transform="translate(8.708 20.148)" fill="#43578e"/>
          <path id="Контур_30082" data-name="Контур 30082" d="M51.827,187.831c2.292,5.539,9.184,5.858,14.2,7.1a13.318,13.318,0,0,1,8.131,6.382,48.777,48.777,0,0,1,4.644,11.174.034.034,0,0,0,.066-.018c-1.4-6.639-3.415-14.633-10.259-17.721-5.484-2.476-12.71-1.233-16.217-7.156-.174-.291-.709-.1-.569.24" transform="translate(5.526 19.997)" fill="#43578e"/>
          <path id="Контур_30083" data-name="Контур 30083" d="M78.8,217.007c.272.368.522.753.8,1.114a3,3,0,0,0,.456.491,1.067,1.067,0,0,0,.639.325.14.14,0,0,0,.12-.208,2.194,2.194,0,0,0-.478-.437c-.164-.145-.332-.288-.491-.438-.32-.3-.613-.632-.927-.942-.06-.06-.176.021-.122.094" transform="translate(8.404 23.138)" fill="#43578e"/>
          <path id="Контур_30084" data-name="Контур 30084" d="M65.848,232.921a55.793,55.793,0,0,1,10.5,11.3,68.309,68.309,0,0,1,3.826,6.292,70.21,70.21,0,0,1,3.091,7.292c.075.187.416.19.391-.053-.55-5.208-3.849-9.673-6.491-14.007a33.4,33.4,0,0,0-4.915-5.944A43.624,43.624,0,0,0,66.2,232.46c-.27-.19-.615.249-.356.461" transform="translate(7.015 24.793)" fill="#43578e"/>
          <path id="Контур_30085" data-name="Контур 30085" d="M95.432,227.335c-1.9,1.08-1.967,4.088-2,6.009-.072,3.692.842,7.158-.778,10.676-1.463,3.175-3.8,5.828-5.639,8.778-1.72,2.762-3.417,6.291-3.379,9.617,0,.191.3.3.386.1a40.06,40.06,0,0,0,1.438-4.8,20.154,20.154,0,0,1,2.346-4.958c1.768-2.74,3.94-5.233,5.374-8.182,1.512-3.105,1.29-6.182,1.191-9.547-.063-2.147-.279-5.594,1.452-7.191.271-.249-.075-.678-.387-.5" transform="translate(8.922 24.247)" fill="#43578e"/>
          <path id="Контур_30086" data-name="Контур 30086" d="M84.934,259.358c-7.673-.106-22.287-.19-22.287-.19l3.617,26.849a12.174,12.174,0,0,0,12.065,10.549H91.54a12.174,12.174,0,0,0,12.065-10.549l3.616-26.849s-14.614.084-22.286.19" transform="translate(6.683 27.648)" fill="#d2dae8"/>
          <path id="Контур_30087" data-name="Контур 30087" d="M434.409,214.871l-43.771,86.7-127.611.915,39.382-88.839Z" transform="translate(28.059 22.792)" fill="#eaedf2"/>
          <path id="Контур_30088" data-name="Контур 30088" d="M186.5,302.141l.024-6.94H269.13l38.008-83.344H439.254l3.32,3.2H313.512l-39.5,87.008s-87.517-.158-87.517.071" transform="translate(19.895 22.601)" fill="#d4d5d9"/>
          <path id="Контур_30089" data-name="Контур 30089" d="M360.9,258.778c-1.442,4.325-9.266,7.664-17.477,7.459s-13.7-3.878-12.256-8.2,9.266-7.664,17.477-7.459,13.7,3.878,12.256,8.2" transform="translate(35.304 26.73)" fill="#dadee8"/>
          <path id="Контур_30090" data-name="Контур 30090" d="M265.632,302.369a.563.563,0,0,1-.229-.05.553.553,0,0,1-.274-.733l39.643-87.332H434.192a.553.553,0,1,1,0,1.107H305.486l-39.35,86.684a.553.553,0,0,1-.5.324" transform="translate(28.278 22.856)" fill="#fff"/>
          <rect id="Прямоугольник_12064" data-name="Прямоугольник 12064" width="151.805" height="33.657" transform="translate(48.838 331.312)" fill="#fff"/>
          <rect id="Прямоугольник_12065" data-name="Прямоугольник 12065" width="273.127" height="33.657" transform="translate(199.777 331.312)" fill="#f5f5f5"/>
          <g id="Сгруппировать_44076" data-name="Сгруппировать 44076" transform="translate(48.838 331.311)" style="mix-blend-mode: multiply;isolation: isolate">
            <g id="Сгруппировать_44075" data-name="Сгруппировать 44075">
              <g id="Сгруппировать_44074" data-name="Сгруппировать 44074" clip-path="url(#clip-path-7)">
                <path id="Контур_30091" data-name="Контур 30091" d="M195.936,299.375H44.13v6.182H468.2v-6.182Z" transform="translate(-44.13 -299.375)" fill="#efefef"/>
              </g>
            </g>
          </g>
          <rect id="Прямоугольник_12067" data-name="Прямоугольник 12067" width="165.773" height="8.243" transform="translate(41.512 324.672)" fill="#fff"/>
          <rect id="Прямоугольник_12068" data-name="Прямоугольник 12068" width="273.127" height="8.243" transform="translate(206.417 324.672)" fill="#f5f5f5"/>
          <path id="Контур_30092" data-name="Контур 30092" d="M152.415,137.541H98.825a6.005,6.005,0,0,1-6-6V104.783a6.006,6.006,0,0,1,6-6.006h53.59a6.005,6.005,0,0,1,6,6.006v26.753a6,6,0,0,1-6,6" transform="translate(9.902 10.537)" fill="#edf3ff"/>
          <path id="Контур_30093" data-name="Контур 30093" d="M167.837,117.109l-20.127-8.493V125.6Z" transform="translate(15.757 11.587)" fill="#edf3ff"/>
          <path id="Объединение_73" data-name="Объединение 73" d="M1510.056,6184.889a3.707,3.707,0,1,1,3.707,3.707A3.707,3.707,0,0,1,1510.056,6184.889Zm-12.714,0a3.707,3.707,0,1,1,3.707,3.707A3.708,3.708,0,0,1,1497.342,6184.889Zm-12.714,0a3.707,3.707,0,1,1,3.707,3.707A3.708,3.708,0,0,1,1484.628,6184.889Z" transform="translate(-1365.527 -6056.193)" fill="#a4a7ac"/>
          <path id="Контур_30097" data-name="Контур 30097" d="M406.512,24.409H282.793A14.386,14.386,0,0,0,268.406,38.8V97.489a14.387,14.387,0,0,0,14.387,14.387h11.089c.312,5.32-.45,13.235-4.893,23.354a62.159,62.159,0,0,0,26.823-23.354h90.7A14.387,14.387,0,0,0,420.9,97.489V38.8a14.386,14.386,0,0,0-14.387-14.387" transform="translate(28.633 2.604)" fill="#e7ebf2"/>
          <path id="Контур_30098" data-name="Контур 30098" d="M351.718,50.274H290.355a3.053,3.053,0,1,1,0-6.106h61.363a3.053,3.053,0,1,1,0,6.106" transform="translate(30.649 4.712)" fill="#fff"/>
          <path id="Контур_30099" data-name="Контур 30099" d="M395.719,66.114H289.172a1.87,1.87,0,1,1,0-3.739H395.719a1.87,1.87,0,1,1,0,3.739" transform="translate(30.649 6.654)" fill="#fff"/>
          <path id="Контур_30100" data-name="Контур 30100" d="M395.719,75.493H289.172a1.87,1.87,0,1,1,0-3.739H395.719a1.87,1.87,0,1,1,0,3.739" transform="translate(30.649 7.655)" fill="#fff"/>
          <path id="Контур_30101" data-name="Контур 30101" d="M372.477,85.493H289.172a1.87,1.87,0,0,1,0-3.739h83.305a1.87,1.87,0,1,1,0,3.739" transform="translate(30.649 8.721)" fill="#fff"/>
          <path id="Контур_30102" data-name="Контур 30102" d="M387.628,50.274H358.355a3.053,3.053,0,0,1,0-6.106h29.273a3.053,3.053,0,1,1,0,6.106" transform="translate(37.903 4.712)" fill="#fff"/>
          <g transform="matrix(1, 0, 0, 1, 0, 0)" filter="url(#Контур_30103)">
            <path id="Контур_30103-2" data-name="Контур 30103" d="M321.263,174.265H288.025a2.213,2.213,0,0,1-2.213-2.213V149.346a2.213,2.213,0,0,1,2.213-2.213h33.238a2.213,2.213,0,0,1,2.213,2.213v22.706a2.213,2.213,0,0,1-2.213,2.213" transform="translate(30.49 15.7)" fill="#fff"/>
          </g>
          <path id="Объединение_74" data-name="Объединение 74" d="M1484.886,6206.846a.829.829,0,0,1-.03-1.173l12.083-12.7-12.01-9.92a.831.831,0,0,1,1.058-1.281l17.547,14.494,17.1-14.88a.83.83,0,0,1,1.089,1.254l-12.009,10.45,12.051,12.083a.831.831,0,0,1-.587,1.417.822.822,0,0,1-.587-.244l-12.132-12.165-4.367,3.8a.833.833,0,0,1-1.073.012l-4.8-3.961-12.164,12.787a.83.83,0,0,1-1.173.028Z" transform="translate(-1168.184 -6017.733)" fill="#c6c7c9"/>
        </g>
      </g>
      <g id="Сгруппировать_44080" data-name="Сгруппировать 44080">
        <g id="Сгруппировать_44079" data-name="Сгруппировать 44079" clip-path="url(#clip-path)">
          <path id="Контур_30108" data-name="Контур 30108" d="M428.869,144.513H363.995a4.427,4.427,0,0,1-4.427-4.427v-10.15a4.426,4.426,0,0,1,4.427-4.427h64.875a4.426,4.426,0,0,1,4.427,4.427v10.15a4.427,4.427,0,0,1-4.427,4.427" transform="translate(38.358 13.389)" fill="#a4b1c7"/>
          <path id="Контур_30109" data-name="Контур 30109" d="M368.231,139.559a.874.874,0,0,1-.7-.311,1.044,1.044,0,0,1-.235-.779l.281-2.46c.02-.062.01-.1-.031-.125a.159.159,0,0,0-.156.031l-2.024,1.464a.957.957,0,0,1-.779.2.968.968,0,0,1-.654-.483.942.942,0,0,1-.11-.872,1,1,0,0,1,.577-.529l2.274-1.028c.062-.021.093-.052.093-.094s-.031-.072-.093-.093l-2.274-1.028a.928.928,0,0,1-.561-.592,1.023,1.023,0,0,1,.094-.809.976.976,0,0,1,.654-.484,1.022,1.022,0,0,1,.779.172l2.024,1.5a.153.153,0,0,0,.156.031c.041-.02.051-.062.031-.124l-.281-2.461a1.011,1.011,0,0,1,.25-.778.955.955,0,0,1,.747-.312.925.925,0,0,1,.934,1.09l-.28,2.461c-.021.062-.011.1.032.124a.152.152,0,0,0,.155-.031l2.025-1.464a.981.981,0,0,1,.793-.2.888.888,0,0,1,.639.484.938.938,0,0,1,.108.872,1,1,0,0,1-.576.529l-2.273,1.028c-.063.021-.094.052-.094.093s.031.073.094.094l2.273,1.028a.981.981,0,0,1,.576.591.911.911,0,0,1-.108.81.881.881,0,0,1-.639.483,1.044,1.044,0,0,1-.793-.17l-2.025-1.5a.157.157,0,0,0-.155-.031c-.043.021-.053.063-.032.125l.28,2.46a.9.9,0,0,1-.232.779,1.013,1.013,0,0,1-.764.311" transform="translate(38.805 13.825)" fill="#fff"/>
          <path id="Контур_30110" data-name="Контур 30110" d="M380.356,139.559a.874.874,0,0,1-.7-.311,1.044,1.044,0,0,1-.235-.779l.281-2.46c.02-.062.01-.1-.031-.125a.159.159,0,0,0-.156.031l-2.024,1.464a.957.957,0,0,1-.779.2.968.968,0,0,1-.654-.483.942.942,0,0,1-.11-.872,1,1,0,0,1,.577-.529l2.274-1.028c.062-.021.093-.052.093-.094s-.031-.072-.093-.093l-2.274-1.028a.928.928,0,0,1-.561-.592,1.023,1.023,0,0,1,.094-.809.976.976,0,0,1,.654-.484,1.022,1.022,0,0,1,.779.172l2.024,1.5a.153.153,0,0,0,.156.031c.041-.02.051-.062.031-.124l-.281-2.461a1.011,1.011,0,0,1,.25-.778.955.955,0,0,1,.747-.312.925.925,0,0,1,.934,1.09l-.28,2.461c-.021.062-.011.1.032.124a.152.152,0,0,0,.155-.031l2.025-1.464a.983.983,0,0,1,.795-.2.89.89,0,0,1,.637.484.935.935,0,0,1,.108.872,1,1,0,0,1-.576.529l-2.273,1.028c-.063.021-.094.052-.094.093s.031.073.094.094l2.273,1.028a.981.981,0,0,1,.576.591.911.911,0,0,1-.108.81.883.883,0,0,1-.637.483,1.046,1.046,0,0,1-.795-.17l-2.025-1.5a.157.157,0,0,0-.155-.031c-.043.021-.053.063-.032.125l.28,2.46a.9.9,0,0,1-.232.779,1.013,1.013,0,0,1-.764.311" transform="translate(40.099 13.825)" fill="#fff"/>
          <path id="Контур_30111" data-name="Контур 30111" d="M392.48,139.559a.874.874,0,0,1-.7-.311,1.044,1.044,0,0,1-.235-.779l.281-2.46c.02-.062.01-.1-.031-.125a.159.159,0,0,0-.156.031l-2.024,1.464a.957.957,0,0,1-.779.2.968.968,0,0,1-.654-.483.942.942,0,0,1-.11-.872,1,1,0,0,1,.577-.529l2.274-1.028c.062-.021.093-.052.093-.094s-.031-.072-.093-.093l-2.274-1.028a.928.928,0,0,1-.561-.592,1.023,1.023,0,0,1,.094-.809.976.976,0,0,1,.654-.484,1.021,1.021,0,0,1,.779.172l2.024,1.5a.153.153,0,0,0,.156.031c.041-.02.051-.062.031-.124l-.281-2.461a1.01,1.01,0,0,1,.25-.778.955.955,0,0,1,.747-.312.925.925,0,0,1,.934,1.09l-.28,2.461c-.021.062-.011.1.032.124a.152.152,0,0,0,.155-.031l2.025-1.464a.981.981,0,0,1,.793-.2.888.888,0,0,1,.639.484.938.938,0,0,1,.108.872,1,1,0,0,1-.575.529l-2.273,1.028c-.063.021-.094.052-.094.093s.031.073.094.094l2.273,1.028a.981.981,0,0,1,.575.591.911.911,0,0,1-.108.81.881.881,0,0,1-.639.483,1.044,1.044,0,0,1-.793-.17l-2.025-1.5a.157.157,0,0,0-.155-.031c-.043.021-.053.063-.032.125l.28,2.46a.9.9,0,0,1-.232.779,1.013,1.013,0,0,1-.764.311" transform="translate(41.392 13.825)" fill="#fff"/>
          <path id="Контур_30112" data-name="Контур 30112" d="M404.605,139.559a.874.874,0,0,1-.7-.311,1.044,1.044,0,0,1-.235-.779l.281-2.46c.02-.062.01-.1-.031-.125a.159.159,0,0,0-.156.031l-2.024,1.464a.957.957,0,0,1-.779.2.968.968,0,0,1-.654-.483.942.942,0,0,1-.11-.872,1,1,0,0,1,.577-.529l2.274-1.028c.062-.021.093-.052.093-.094s-.031-.072-.093-.093l-2.274-1.028a.928.928,0,0,1-.561-.592,1.024,1.024,0,0,1,.094-.809.976.976,0,0,1,.654-.484,1.021,1.021,0,0,1,.779.172l2.024,1.5a.153.153,0,0,0,.156.031c.041-.02.051-.062.031-.124l-.281-2.461a1.01,1.01,0,0,1,.25-.778.955.955,0,0,1,.747-.312.925.925,0,0,1,.934,1.09l-.28,2.461c-.021.062-.011.1.032.124a.152.152,0,0,0,.155-.031l2.025-1.464a.981.981,0,0,1,.793-.2.888.888,0,0,1,.639.484.935.935,0,0,1,.108.872,1,1,0,0,1-.576.529l-2.273,1.028c-.063.021-.094.052-.094.093s.031.073.094.094L408.5,135.7a.981.981,0,0,1,.576.591.911.911,0,0,1-.108.81.881.881,0,0,1-.639.483,1.044,1.044,0,0,1-.793-.17l-2.025-1.5a.157.157,0,0,0-.155-.031c-.043.021-.053.063-.032.125l.28,2.46a.9.9,0,0,1-.232.779,1.013,1.013,0,0,1-.764.311" transform="translate(42.686 13.825)" fill="#fff"/>
          <path id="Контур_30113" data-name="Контур 30113" d="M416.73,139.559a.874.874,0,0,1-.7-.311,1.044,1.044,0,0,1-.235-.779l.281-2.46c.02-.062.01-.1-.031-.125a.159.159,0,0,0-.156.031l-2.024,1.464a.957.957,0,0,1-.779.2.968.968,0,0,1-.654-.483.942.942,0,0,1-.11-.872,1,1,0,0,1,.577-.529l2.274-1.028c.062-.021.093-.052.093-.094s-.031-.072-.093-.093l-2.274-1.028a.928.928,0,0,1-.561-.592,1.023,1.023,0,0,1,.094-.809.976.976,0,0,1,.654-.484,1.021,1.021,0,0,1,.779.172l2.024,1.5a.153.153,0,0,0,.156.031c.041-.02.051-.062.031-.124l-.281-2.461a1.01,1.01,0,0,1,.25-.778.955.955,0,0,1,.747-.312.925.925,0,0,1,.934,1.09l-.28,2.461c-.021.062-.011.1.032.124a.152.152,0,0,0,.155-.031l2.025-1.464a.981.981,0,0,1,.793-.2.888.888,0,0,1,.639.484.935.935,0,0,1,.108.872,1,1,0,0,1-.576.529l-2.273,1.028c-.062.021-.094.052-.094.093s.032.073.094.094l2.273,1.028a.981.981,0,0,1,.576.591.911.911,0,0,1-.108.81.881.881,0,0,1-.639.483,1.044,1.044,0,0,1-.793-.17l-2.025-1.5a.157.157,0,0,0-.155-.031c-.043.021-.053.063-.032.125l.28,2.46a.9.9,0,0,1-.232.779,1.013,1.013,0,0,1-.764.311" transform="translate(43.979 13.825)" fill="#fff"/>
        </g>
      </g>
    </g>
  </g>
</svg>
