<svg transform="scale(1)" version="1.1" id="Layer_1" xmlns="http://www.w3.org/2000/svg" xmlns:xlink="http://www.w3.org/1999/xlink" x="0px" y="0px" viewBox="0 0 500 500" xml:space="preserve" class="show_show__wrapper__graphic__5Waiy "><title>React</title><style type="text/css">
	.st0{fill:#A04040;}
	.st1{fill:#000001;}
	.st2{fill:#F3CB5C;}
	.st3{fill:#EA8383;}
	.st4{fill:#F2EBEB;}
	.st5{fill:#469F78;}
	.st6{fill:#FFFFFF;}
	.st7{fill:#87CCDB;}
</style><g id="character"><g id="character-1"><path class="st0" d="M345.5,387.5c0,0-130-1-133.9,0.4s-19.5,21.4-17.3,23.5s13-6,13-6s-2.3,12,1.6,15.8s6-11.9,8.1-14
			s11.8-4.7,11.8-4.7c7,4.1,14.6,7.3,22.5,9.5c12.8,3.4,91.9-1.2,91.9-1.2L345.5,387.5z"></path><path class="st1" d="M227.8,392.5c-4.7,2.1-9.4,4.1-13.9,6.2c-1.1,0.5-2.3,1.1-3.3,1.7c-0.3,0.2-0.5,0.3-0.8,0.5l-0.7,0.5
			c-0.4,0.3-0.6,0.7-0.8,1.2c-0.4,1.1-0.7,2.3-0.9,3.5c-0.2,1.2-0.3,2.5-0.3,3.7c-0.1,1.2-0.1,2.5,0,3.7c0.1,1.2,0.3,2.3,0.7,3.4
			c0.5,1.1,1,2.4,1.6,3.4c0.2,0.4,0.5,0.8,0.9,1.1c0.1,0,0,0.1,0.1,0c0.2-0.1,0.3-0.3,0.4-0.5c0.6-1,1.2-2.1,1.5-3.3
			c0.5-1.2,0.9-2.4,1.4-3.6c1-2.4,2-4.7,3.2-7c-0.8,2.4-1.6,4.9-2.3,7.3l-1.1,3.6c-0.3,1.3-0.8,2.6-1.5,3.7
			c-0.2,0.4-0.5,0.7-0.9,0.9c-0.2,0.2-0.5,0.3-0.8,0.3c-0.3,0-0.6,0-0.9-0.2c-0.4-0.2-0.7-0.5-1-0.9c-0.2-0.3-0.4-0.6-0.6-0.9
			c-0.7-1.2-1.2-2.3-1.8-3.5c-0.5-1.3-0.8-2.6-0.9-4c-0.1-1.3-0.2-2.6-0.1-4c0.1-1.3,0.2-2.6,0.4-3.9c0.2-1.3,0.5-2.7,1-3.9
			c0.3-0.7,0.8-1.4,1.4-1.9l0.9-0.6l0.9-0.5c1.2-0.6,2.3-1.1,3.5-1.6C217.9,395.4,222.8,393.8,227.8,392.5z"></path><path class="st2" d="M314.7,445.5h94.7c0,0,60.8-146.9-31.5-168.5c0,0-47.5,37.6-56.5,70.6c-2,7.5,9.7,17.6,9,26.1
			S314.7,445.5,314.7,445.5z"></path><path class="st1" d="M359.8,237.9C350,239.4,315,244,315,244s4.4-33.7,19.1-36.7S359.8,237.9,359.8,237.9z"></path><path class="st3" d="M361.2,307.5c-1.5,1.6-4.1,1.6-5.7,0.1c-0.8-0.8-1.3-1.9-1.2-3c0.7-16,4.2-63.4-5.5-64.2
			c-18.2-1.4-28.9-24.1-28.9-24.1s-15.5-4.4-15.8-7.8s11.4-10.9,18.9-19.4s12.2-19.9,22-18.3s-0.9,15,6.3,25.8
			c4.4,6.6,13,5.8,13,5.8s1.3-11.4,13.3-3.9s-5.9,21.1-4.5,24c2.9,6.1,9.1,48.3,11.6,56C385,280,368.7,299.4,361.2,307.5z"></path><path class="st4" d="M348.9,200c0,0-15.3-6.6-21.2,4.3C327.8,204.2,343.7,210.9,348.9,200z"></path><path class="st1" d="M349.7,200c-2-0.5-4-0.9-6-1.2c-2-0.3-4-0.4-6-0.2c-2,0.1-3.9,0.6-5.7,1.4c-1.8,0.8-3.4,2.2-4.5,3.9
			c0.8-2,2.2-3.6,4.1-4.6c0.9-0.5,1.9-0.9,2.9-1.2c1-0.3,2.1-0.4,3.1-0.5c2.1-0.1,4.2,0,6.2,0.5C345.9,198.4,347.8,199.1,349.7,200z
			"></path><path class="st1" d="M334.7,198.5c0,0,4.2,1.4,1.7,7.7c0,0-10.1-0.8-8.7-2.7C327.8,203.5,331.2,198.1,334.7,198.5z"></path><path class="st1" d="M348.9,206.2c-0.3-0.1-0.7-0.2-1-0.2c-0.2,0-0.4-0.1-0.6-0.2c-0.2-0.1-0.3-0.3-0.4-0.5
			c-0.1-0.3-0.2-0.7-0.3-1c0.3-0.2,0.7-0.3,1.1-0.3c0.3,0,0.6,0.1,0.9,0.4c0.3,0.2,0.5,0.5,0.5,0.9
			C349.3,205.5,349.2,205.9,348.9,206.2z"></path><path class="st1" d="M344.7,208c-0.3-0.1-0.7-0.2-1-0.4c-0.2-0.1-0.4-0.3-0.6-0.4c-0.1-0.2-0.2-0.4-0.3-0.6l-0.2-1
			c0.3-0.3,0.8-0.3,1.2-0.2c0.7,0.2,1.2,0.8,1.2,1.5C345.1,207.3,345,207.7,344.7,208z"></path><path class="st0" d="M342.1,223.8c0,0-2.7-2.7-5.5-0.6s3,9.2,7.8,7.5S342.1,223.8,342.1,223.8z"></path><path class="st1" d="M342.3,219.3c0.7,1.2,0.9,2.5,0.8,3.9c-0.1,1.4-0.7,2.8-1.6,3.9c-0.9,1.1-2.1,1.9-3.4,2.3
			c-0.6,0.2-1.3,0.4-1.9,0.5c-0.7,0.1-1.3,0.1-2,0c0.5-0.3,1.1-0.7,1.7-0.9c0.5-0.3,1.1-0.6,1.5-0.9
			C340.4,226.1,342.2,222.8,342.3,219.3L342.3,219.3z"></path><path class="st1" d="M344.5,191.1c-1.6-0.8-3.4-1.3-5.2-1.6c-0.9-0.1-1.7-0.1-2.6,0c-0.5,0-0.9,0.1-1.4,0.1
			c-0.5,0.1-1,0.1-1.5,0.2c0.7-0.8,1.5-1.4,2.5-1.8c1-0.4,2.1-0.6,3.2-0.4c1.1,0.1,2.1,0.5,3,1.1
			C343.4,189.3,344.1,190.1,344.5,191.1z"></path><path class="st0" d="M336.9,170.3c0,0,10.4,32.9,33.2,42.5c0,0-18.4,13.2-13.4,24.4s-13.3,28.2-11.2,37.2l99.4-33.8
			c0,0-12.8-27.1-32.4-24.6s2.6-23.2-21.6-40.7S336.9,170.3,336.9,170.3z"></path><path class="st0" d="M451.8,239c-1.5-2.2-3.2-4.2-5-6.1c-1.7-2-3.6-3.8-5.6-5.5c-3.9-3.5-8.4-6.3-13.3-8.2
			c-4.9-1.9-10.2-2.4-15.3-1.6c-2.6,0.4-5.1,1.2-7.5,2.3c-1.2,0.5-2.4,1.1-3.5,1.7c-1.2,0.6-2.2,1.4-3.4,2c4.2-3.3,9-5.7,14.3-6.8
			l2-0.4l2-0.1c0.7,0,1.3,0,2,0h1l1,0.1c2.7,0.2,5.3,0.8,7.8,1.8c5,2,9.5,4.9,13.4,8.5C445.6,230.3,449,234.5,451.8,239z"></path><path class="st1" d="M336.9,170.3c1.2,3,2.5,6,3.9,8.9s3,5.8,4.6,8.5c3.2,5.5,7.2,10.6,11.8,15.1c2.3,2.2,4.8,4.1,7.5,5.8
			c2.7,1.6,5.7,2.8,8.7,3.6c6.3,1.5,12.8,1.3,19-0.5l-2.3,0.8l-1.2,0.4c-0.4,0.1-0.8,0.2-1.2,0.3l-2.4,0.6l-2.4,0.4
			c-3.3,0.4-6.6,0.3-9.9-0.4c-3.3-0.7-6.4-1.9-9.3-3.5c-2.9-1.7-5.6-3.6-8-5.9c-4.7-4.6-8.7-9.9-11.8-15.8
			C340.9,182.7,338.5,176.6,336.9,170.3z"></path><path class="st4" d="M403.7,445.5c0,0,25.6-149.3,43.5-151.2s-3.3,149.9-3.3,149.9L403.7,445.5z"></path><path class="st1" d="M314.5,426.8c0,0,2.8-10-11.4-14.1S262.5,427,262.5,427L314.5,426.8z"></path><path class="st1" d="M104.6,185.7l-9.3,21.7c0,0,64.5,161.3,66.2,165.3s18.9,5.6,18.9,5.6L104.6,185.7z"></path><path class="st1" d="M145.4,310.2L95.3,426l85.1,0.4c0,0-13.7-9.8-20.4-8.6s-48.5-2.6-48.5-2.6l39.9-90L145.4,310.2z"></path><polygon class="st1" points="190.4,426.4 194.1,419.5 244.1,419.5 252.8,426.4 		"></polygon><polygon class="st4" points="45.6,423.4 330.5,426.8 340.3,445.3 49.5,445.3 		"></polygon></g><path class="st5" d="M366.5,220.9c0,0-0.3-18.5,9.2-21.3s15.5,22.3,8.2,31.3S366.3,234.3,366.5,220.9z"></path><path class="st1" d="M374.3,202.7c-0.7,2.4-1.3,4.8-1.8,7.1c-0.5,2.3-1,4.7-1.2,7.1c-0.2,1.2-0.2,2.4-0.2,3.6c0,1.2,0,2.4,0.1,3.6
		c0.3,2.4,0.9,4.7,2,6.9c-1.8-1.8-3-4.1-3.5-6.6c-0.5-2.5-0.7-5.1-0.4-7.6c0.3-2.5,0.9-5,1.7-7.3C371.8,207,372.9,204.7,374.3,202.7
		z"></path><path class="st5" d="M337.3,233.4c0,0,45.3-10.6,44.9-13.7s-1.8-3.5-4.2-2.9s-41.1,14.1-41.1,14.1s0.3-2.3-7.3,0s-8.2,3.5-6.9,5.8
		S337.2,236.1,337.3,233.4z"></path><path class="st3" d="M338.5,240c2.4,0.1,15.8,2.3,15.8,2.3s1.5-7.2,0.7-9.4s-11-4.2-10.4-8.4s16.5,0.7,17,2.6
		c0,0,0.3-13.6,3.1-11.9s5.7,26.8,5.3,30s-6.6,15.4-6.6,15.4s-22.9,22.9-22.9,26.3s29.5,117.3,29.5,117.3s-45.1,60.8-54.9-5.5
		c-0.8-5.4,5.6-107.9,5.6-107.9s-1.1-12.6,1.3-16.4s16.3-23.8,16.3-23.8l-5.3-3.4c0,0-10.4,4.5-9.4,1.5s7.6-9.4,10.1-9.7L338.5,240z
		"></path><path class="st1" d="M344.7,224.6c0.1,0.5,0.5,1,0.9,1.4c0.4,0.4,0.8,0.7,1.3,1c0.9,0.6,1.9,1.2,2.8,1.8s1.9,1.1,2.9,1.7l2.9,1.7
		l0.6,0.3l-0.1,0.6c-0.2,1.7-0.4,3.4-0.7,5.1c-0.3,1.7-0.6,3.4-1.1,5.1c-0.2-1.7-0.3-3.4-0.3-5.2c0-1.7,0-3.4,0.1-5.1l0.5,0.9
		c-2.1-1.1-4-2.3-5.9-3.7c-0.9-0.7-1.8-1.5-2.6-2.4c-0.4-0.4-0.8-0.9-1.1-1.4C344.8,225.8,344.6,225.2,344.7,224.6z"></path><path class="st1" d="M347.8,223c2.5-0.2,5.1,0,7.5,0.4c1.3,0.2,2.5,0.5,3.8,0.9c0.7,0.2,1.3,0.5,1.9,0.9c0.3,0.2,0.6,0.4,0.9,0.7
		c0.2,0.2,0.3,0.3,0.4,0.5c0.1,0.2,0.2,0.4,0.3,0.6c0.4,1.3,0.6,2.6,0.7,3.9c0.1,1.3,0.2,2.5,0.2,3.8c0,2.5-0.1,5-0.5,7.5
		c-0.5-2.5-0.8-5-1.1-7.4c-0.2-1.2-0.3-2.5-0.5-3.7c-0.1-1.2-0.4-2.3-0.7-3.4c-0.1-0.3-0.4-0.6-0.8-0.9c-0.5-0.3-1-0.5-1.5-0.8
		c-1.1-0.5-2.3-0.8-3.4-1.2C352.6,224.2,350.2,223.7,347.8,223z"></path><path class="st6" d="M400.6,294.3c-1.7-0.7-3.5-0.8-5.3-0.4c-1.7,0.4-3.4,1.1-4.8,2.2c-1.4,1-2.8,2.2-4,3.5
		c-1.2,1.3-2.3,2.7-3.3,4.2c-4,5.9-6.8,12.6-9.3,19.3s-4.5,13.7-6.8,20.6s-4.7,13.7-7.3,20.5c1.7-7,3.6-14,5.7-21
		c1-3.5,2-6.9,3.1-10.4c0.5-1.7,1.1-3.5,1.6-5.2s1.2-3.4,1.8-5.1c1.3-3.4,2.7-6.8,4.3-10c1.6-3.3,3.5-6.5,5.7-9.4
		c2.1-3,4.8-5.6,7.9-7.6c1.6-1,3.3-1.6,5.2-1.9C397,293.1,398.9,293.4,400.6,294.3z"></path><polygon class="st2" points="392.5,281.9 382.4,269.2 353.7,294.7 355.2,320.2 	"></polygon><path class="st6" d="M354.3,304.6c0.4,2.6,0.6,5.2,0.9,7.8c0.1,1.3,0.3,2.6,0.4,3.9l0.4,3.9l-1.3-0.5c3-3.3,6.1-6.5,9.1-9.7
		c3.1-3.2,6.2-6.4,9.3-9.6s6.3-6.3,9.5-9.4s6.5-6.1,9.8-9.1c-2.9,3.4-5.8,6.7-8.8,10s-6,6.5-9.1,9.8c-3.1,3.2-6.2,6.4-9.3,9.6
		s-6.3,6.3-9.5,9.4l-1.2,1.2v-1.6l-0.1-3.9c0-1.3-0.1-2.6-0.1-3.9C354.3,309.8,354.2,307.2,354.3,304.6z"></path><path class="st5" d="M287.5,254.1c0.6-1.2,1.4-2.2,2.5-3c1-0.8,2-1.5,3.1-2.1c1.1-0.6,2.2-1.2,3.4-1.6c1.2-0.5,2.4-0.8,3.7-1
		c-0.9,0.9-1.9,1.7-2.9,2.4c-1,0.7-2.1,1.4-3.1,2s-2.2,1.2-3.3,1.7S288.6,253.5,287.5,254.1z"></path><path class="st5" d="M282.3,239.5c0.7-0.4,1.4-0.6,2.2-0.7c0.8-0.1,1.5-0.2,2.2-0.3c1.5-0.1,3-0.2,4.5-0.2c1.5,0,3,0.1,4.5,0.3
		c1.5,0.2,3,0.5,4.4,0.9c-1.5,0.3-3,0.6-4.5,0.6c-1.5,0.1-3,0.1-4.5,0.1s-3-0.1-4.5-0.2c-0.7-0.1-1.5-0.2-2.2-0.2
		C283.8,239.6,283.1,239.5,282.3,239.5z"></path><path class="st5" d="M300.2,232.5c-0.8,0.2-1.6,0.3-2.4,0.2c-0.8,0-1.5-0.2-2.3-0.3c-0.8-0.2-1.5-0.4-2.2-0.8
		c-0.7-0.3-1.4-0.8-2-1.3c0.8-0.2,1.6-0.3,2.4-0.2c0.8,0,1.5,0.2,2.3,0.4c0.7,0.2,1.5,0.4,2.2,0.8
		C298.9,231.5,299.6,231.9,300.2,232.5z"></path></g><g id="speech-bubble"><path class="st7" d="M142.2,111.2c0,0-12.6,35.7,4.4,46.1s76.8,1.1,86.7,3.8s16.3,15.2,21.1,9.5c4.7-5.7,11.3-42.4-10.1-63.3
		S156.4,87.7,142.2,111.2z"></path><path class="st6" d="M164.2,136.2c1.6-2.6,3.4-5.1,5.4-7.6c1.9-2.4,4-4.7,6.4-6.8c1.2-1.1,2.5-2,3.9-2.7c1.4-0.9,3.1-1.3,4.8-1.2
		c0.9,0.1,1.7,0.4,2.4,0.9c0.7,0.5,1.3,1.1,1.9,1.8c0.9,1.4,1.5,3,1.5,4.7c0.1,3.2-0.6,6.5-2,9.4c-0.3,0.7-0.7,1.5-1.2,2.1
		c-0.5,0.7-1.1,1.4-1.7,1.9c-0.4,0.4-1,0.6-1.6,0.6c-0.7,0-1.3-0.4-1.7-1c-0.5-0.9-0.7-1.9-0.4-2.9c0.4-1.6,1-3.2,1.9-4.6
		c0.8-1.4,1.7-2.7,2.8-3.9c2-2.5,4.5-4.6,7.3-6.2c1.4-0.8,3-1.4,4.6-1.7c1.7-0.3,3.4-0.2,5.1,0.4c1.6,0.6,3,1.6,4.1,2.9
		c1.2,1.2,2.1,2.6,2.7,4.2c1.2,3.2,0.9,6.7-0.8,9.7c-0.4,0.7-0.9,1.4-1.5,2.1c-0.6,0.7-1.4,1.2-2.2,1.6c-0.6,0.2-1.2,0.2-1.7,0
		c-0.3-0.1-0.6-0.3-0.8-0.5c-0.2-0.2-0.3-0.5-0.4-0.8c-0.3-0.9-0.2-1.9,0.1-2.8c0.6-1.5,1.3-3,2.2-4.3c0.9-1.3,1.9-2.5,2.9-3.7
		c2.1-2.4,4.6-4.4,7.4-5.8c1.5-0.8,3.2-0.9,4.8-0.4c0.7,0.4,1.4,0.9,1.9,1.5c0.3,0.3,0.5,0.6,0.8,0.9s0.5,0.6,0.7,0.9
		c1.9,2.5,2.9,5.6,2.9,8.7c-0.1-1.5-0.4-3-1-4.5c-0.6-1.4-1.4-2.7-2.3-3.9c-0.2-0.3-0.5-0.6-0.7-0.9c-0.2-0.3-0.5-0.6-0.8-0.8
		c-0.5-0.5-1.1-1-1.7-1.3c-1.4-0.3-2.9-0.1-4.1,0.6c-2.6,1.5-5,3.4-6.9,5.8c-1,1.1-1.9,2.3-2.7,3.6c-0.8,1.2-1.5,2.5-2,3.9
		c-0.2,0.6-0.3,1.2-0.1,1.7c0,0.1,0.1,0.2,0.1,0.2c0.1,0,0.1,0.1,0.2,0.1c0.2,0.1,0.4,0.1,0.6,0c0.6-0.3,1.1-0.7,1.5-1.1
		c0.5-0.5,0.9-1.1,1.2-1.7c1.4-2.5,1.5-5.5,0.5-8.2c-0.5-1.3-1.3-2.5-2.3-3.5c-0.9-1-2.1-1.8-3.4-2.4c-2.6-1-5.5-0.2-8.1,1.3
		c-2.6,1.5-4.9,3.4-6.8,5.7c-1,1.1-1.8,2.3-2.6,3.6c-0.8,1.2-1.3,2.5-1.7,3.9c-0.2,0.5-0.1,1.1,0.1,1.6c0.1,0.2,0.1,0.1,0.2,0.2
		c0.2,0,0.4-0.1,0.5-0.2c1-0.9,1.9-2.1,2.4-3.4c0.6-1.3,1.1-2.7,1.5-4.2c0.4-1.4,0.5-2.9,0.5-4.4c0-1.4-0.4-2.8-1.2-4
		c-0.7-1.1-1.9-1.9-3.3-2.2c-1.4-0.1-2.9,0.2-4.1,0.9c-1.3,0.7-2.6,1.5-3.8,2.5C171.8,126.4,167.9,131.2,164.2,136.2z"></path><path class="st6" d="M226.9,141.1c-0.3-0.1-0.6-0.3-0.8-0.5c-0.1-0.1-0.2-0.3-0.2-0.5c0-0.2,0.1-0.4,0.2-0.5
		c0.2-0.2,0.5-0.4,0.8-0.5c0.3,0.1,0.6,0.3,0.8,0.5c0.1,0.1,0.2,0.3,0.2,0.5c0,0.2-0.1,0.4-0.2,0.5
		C227.4,140.8,227.2,141,226.9,141.1z"></path></g><g id="gear"><path class="st4" d="M345.2,60.3c2.2,0.3,4.4,0.8,6.5,1.7l4.8-4l8.3,6.2l-2.6,5.7c1.4,1.8,2.5,3.7,3.4,5.8l6.2,0.5l1.4,10.3
		l-5.9,2.2c-0.3,2.2-0.8,4.4-1.7,6.5l4,4.8l-6.2,8.3l-5.7-2.6c-1.8,1.4-3.7,2.6-5.8,3.4l-0.5,6.2l-10.3,1.4L339,111
		c-2.2-0.3-4.4-0.8-6.5-1.7l-4.8,4l-8.3-6.2l2.6-5.7c-1.4-1.8-2.6-3.7-3.4-5.8l-6.2-0.5l-1.5-10.2l5.9-2.2c0.3-2.2,0.9-4.4,1.7-6.5
		l-4-4.8l6.2-8.2l5.7,2.6c1.8-1.4,3.7-2.5,5.8-3.4l0.5-6.2l10.3-1.4L345.2,60.3L345.2,60.3z M340.2,71.8c-7.7,1.1-13,8.1-11.9,15.8
		c1.1,7.7,8.1,13,15.8,11.9c7.7-1.1,13-8.1,11.9-15.8c0,0,0,0,0-0.1C354.9,76.1,347.8,70.8,340.2,71.8z"></path><path class="st4" d="M400.6,90.2c1.8,0.2,3.5,0.7,5.1,1.3l3.8-3.2l6.5,4.9l-2,4.5c1.1,1.4,2,2.9,2.7,4.6l4.9,0.4l1.1,8l-4.6,1.7
		c-0.2,1.8-0.7,3.5-1.3,5.1l3.2,3.8l-5,6.5l-4.5-2c-1.4,1.1-2.9,2-4.6,2.7l-0.4,4.9l-8,1.1l-1.7-4.6c-1.8-0.2-3.5-0.7-5.1-1.3
		l-3.8,3.2l-6.5-4.8l2-4.5c-1.1-1.4-2-2.9-2.7-4.6l-4.9-0.4l-1.1-8l4.6-1.7c0.2-1.8,0.7-3.5,1.3-5.1l-3.2-3.8l4.9-6.5l4.5,2
		c1.4-1.1,2.9-2,4.6-2.7l0.4-4.9l8-1.1L400.6,90.2L400.6,90.2z M396.7,99.2c-6,0.8-10.2,6.4-9.4,12.4s6.4,10.2,12.4,9.4
		c6-0.8,10.2-6.4,9.4-12.4c0,0,0-0.1,0-0.1C408.2,102.6,402.7,98.4,396.7,99.2z"></path></g></svg>