<svg xmlns="http://www.w3.org/2000/svg" width="170" height="47" viewBox="0 0 170 47">
  <g id="google_play" transform="translate(-689 -592)">
    <rect id="Прямоугольник_3390" data-name="Прямоугольник 3390" width="170" height="47" rx="10" transform="translate(689 592)" fill="#fff"/>
    <g id="google-play" transform="translate(702.977 602.122)">
      <path id="Контур_6520" data-name="Контур 6520" d="M265.141,169.906l-4.447-2.568-6.093,4.553,6.093,4.553,4.462-2.577a2.311,2.311,0,0,0-.015-3.96Z" transform="translate(-243.047 -158.745)" fill="#ff9100"/>
      <path id="Контур_6521" data-name="Контур 6521" d="M42.7,25.248,37.3,32.18,30.294,37.7a2.34,2.34,0,0,1-.693-1.664V14.422a2.34,2.34,0,0,1,.693-1.664L37.3,18.316Z" transform="translate(-29.601 -12.103)" fill="#25d9f8"/>
      <path id="Контур_6522" data-name="Контур 6522" d="M256.141,219.286l-1.54,1.987V217.3Z" transform="translate(-243.047 -206.141)" fill="#00c0f1"/>
      <path id="Контур_6523" data-name="Контур 6523" d="M60.062,8.586l-4.56,4.56L43.1.656A3.474,3.474,0,0,1,43.579.3,2.281,2.281,0,0,1,45.92.348l8.041,4.726Z" transform="translate(-42.408 0)" fill="#7fe881"/>
      <path id="Контур_6524" data-name="Контур 6524" d="M260.7,102.312l-4.56,4.56-1.54-1.54V98.8Z" transform="translate(-243.047 -93.727)" fill="#5bc980"/>
      <path id="Контур_6525" data-name="Контур 6525" d="M60.062,260.56l-6.1,3.512-8.057,4.7a2.347,2.347,0,0,1-1.186.339,2.391,2.391,0,0,1-1.14-.308,3.479,3.479,0,0,1-.478-.354L55.5,256Z" transform="translate(-42.408 -242.855)" fill="#ff637b"/>
      <path id="Контур_6526" data-name="Контур 6526" d="M260.7,260.56l-6.1,3.512V257.54l1.54-1.54Z" transform="translate(-243.047 -242.855)" fill="#e63950"/>
    </g>
    <g id="Сгруппировать_43555" data-name="Сгруппировать 43555" transform="translate(-66 31)">
      <path id="Контур_3688" data-name="Контур 3688" d="M.252-.631.6-1.2a.46.46,0,0,1,.127-.116.3.3,0,0,1,.164-.049.555.555,0,0,1,.318.14,4.516,4.516,0,0,0,.47.308,3.906,3.906,0,0,0,.7.308,3.083,3.083,0,0,0,.995.14,3.159,3.159,0,0,0,.9-.117,1.8,1.8,0,0,0,.664-.345,1.5,1.5,0,0,0,.411-.557,1.839,1.839,0,0,0,.142-.736,1.549,1.549,0,0,0-.136-.65,1.379,1.379,0,0,0-.4-.508,1.9,1.9,0,0,0-.633-.326,2.821,2.821,0,0,0-.844-.117H2.242v-.995H3.428a2.561,2.561,0,0,0,.717-.1A1.693,1.693,0,0,0,4.717-5.2a1.32,1.32,0,0,0,.374-.453,1.351,1.351,0,0,0,.136-.618A1.3,1.3,0,0,0,5.1-6.845a1.258,1.258,0,0,0-.368-.45,1.765,1.765,0,0,0-.59-.29,2.782,2.782,0,0,0-.788-.1,3,3,0,0,0-.874.111,3.393,3.393,0,0,0-.609.244,3.754,3.754,0,0,0-.4.244.485.485,0,0,1-.266.111.27.27,0,0,1-.164-.047.447.447,0,0,1-.121-.149l-.3-.588a3.58,3.58,0,0,1,1.19-.686,4.658,4.658,0,0,1,1.542-.237,4.279,4.279,0,0,1,1.264.173,2.868,2.868,0,0,1,.948.481,2.124,2.124,0,0,1,.6.731,2.074,2.074,0,0,1,.208.928,2.185,2.185,0,0,1-.337,1.212,2.245,2.245,0,0,1-.955.814,3.314,3.314,0,0,1,.633.353,2.327,2.327,0,0,1,.491.47,2.076,2.076,0,0,1,.315.577,1.968,1.968,0,0,1,.111.664,2.865,2.865,0,0,1-.217,1.115,2.536,2.536,0,0,1-.637.9,3.017,3.017,0,0,1-1.031.6,4.116,4.116,0,0,1-1.4.22A4.562,4.562,0,0,1,1.587.24,4.1,4.1,0,0,1,.252-.631Zm7.329-.495a1.42,1.42,0,0,1,.207-.729,1.807,1.807,0,0,1,.677-.624,4.512,4.512,0,0,1,1.22-.448,9.16,9.16,0,0,1,1.851-.2v-.5a1.7,1.7,0,0,0-.325-1.128,1.174,1.174,0,0,0-.944-.38,2.026,2.026,0,0,0-.7.105,2.847,2.847,0,0,0-.489.232q-.207.127-.356.232a.5.5,0,0,1-.291.105.326.326,0,0,1-.194-.059A.491.491,0,0,1,8.1-4.673l-.2-.358A3.667,3.667,0,0,1,9.037-5.8,3.519,3.519,0,0,1,10.4-6.051a2.354,2.354,0,0,1,.945.179,2,2,0,0,1,.7.494,2.062,2.062,0,0,1,.428.763,3.212,3.212,0,0,1,.144.986v4.1h-.5a.494.494,0,0,1-.253-.053.386.386,0,0,1-.142-.213l-.109-.6a6.381,6.381,0,0,1-.5.408,3.038,3.038,0,0,1-.505.3,2.6,2.6,0,0,1-.561.188,3.168,3.168,0,0,1-.67.065,2.357,2.357,0,0,1-.7-.1A1.547,1.547,0,0,1,8.1.16a1.5,1.5,0,0,1-.382-.528A1.852,1.852,0,0,1,7.581-1.126Zm1.075-.063a1.051,1.051,0,0,0,.081.431.792.792,0,0,0,.223.3A.888.888,0,0,0,9.3-.294a1.62,1.62,0,0,0,.418.052A2.39,2.39,0,0,0,10.26-.3a2.062,2.062,0,0,0,.464-.168,2.5,2.5,0,0,0,.418-.269,3.768,3.768,0,0,0,.393-.361V-2.411a9.46,9.46,0,0,0-1.331.122,3.825,3.825,0,0,0-.895.254,1.22,1.22,0,0,0-.5.37A.794.794,0,0,0,8.656-1.189ZM14.342.475V-5.934h2.393a3.839,3.839,0,0,1,1.039.123,2.151,2.151,0,0,1,.711.332,1.275,1.275,0,0,1,.406.493,1.451,1.451,0,0,1,.129.607,1.583,1.583,0,0,1-.063.429,1.319,1.319,0,0,1-.215.429,1.48,1.48,0,0,1-.413.368,2.14,2.14,0,0,1-.651.254,2.176,2.176,0,0,1,1.159.506,1.305,1.305,0,0,1,.412,1,1.672,1.672,0,0,1-.19.818,1.754,1.754,0,0,1-.517.582,2.279,2.279,0,0,1-.766.351,3.709,3.709,0,0,1-.943.115Zm1.075-.816H16.8a1.575,1.575,0,0,0,1-.29.959.959,0,0,0,.369-.8,1.122,1.122,0,0,0-.071-.409.835.835,0,0,0-.229-.324,1.046,1.046,0,0,0-.421-.214,2.42,2.42,0,0,0-.641-.073H15.417Zm0-2.824h1.239a1.714,1.714,0,0,0,.517-.075,1.225,1.225,0,0,0,.409-.213.984.984,0,0,0,.266-.333.96.96,0,0,0,.1-.43.936.936,0,0,0-.062-.336.689.689,0,0,0-.217-.288,1.17,1.17,0,0,0-.4-.2,2.11,2.11,0,0,0-.61-.075H15.417Zm4.727,2.039a1.42,1.42,0,0,1,.207-.729,1.807,1.807,0,0,1,.677-.624,4.512,4.512,0,0,1,1.22-.448,9.16,9.16,0,0,1,1.851-.2v-.5a1.7,1.7,0,0,0-.325-1.128,1.174,1.174,0,0,0-.944-.38,2.026,2.026,0,0,0-.7.105,2.847,2.847,0,0,0-.489.232q-.207.127-.356.232a.5.5,0,0,1-.291.105.326.326,0,0,1-.194-.059.491.491,0,0,1-.138-.151l-.2-.358A3.667,3.667,0,0,1,21.6-5.8a3.519,3.519,0,0,1,1.359-.253,2.354,2.354,0,0,1,.945.179,2,2,0,0,1,.7.494,2.062,2.062,0,0,1,.428.763,3.212,3.212,0,0,1,.144.986v4.1h-.5a.494.494,0,0,1-.253-.053.386.386,0,0,1-.142-.213l-.109-.6a6.381,6.381,0,0,1-.5.408,3.038,3.038,0,0,1-.505.3,2.6,2.6,0,0,1-.561.188,3.168,3.168,0,0,1-.67.065,2.357,2.357,0,0,1-.7-.1A1.547,1.547,0,0,1,20.668.16a1.5,1.5,0,0,1-.382-.528A1.852,1.852,0,0,1,20.145-1.126Zm1.075-.063a1.051,1.051,0,0,0,.081.431.792.792,0,0,0,.223.3.888.888,0,0,0,.338.168,1.62,1.62,0,0,0,.418.052A2.39,2.39,0,0,0,22.824-.3a2.062,2.062,0,0,0,.464-.168,2.5,2.5,0,0,0,.418-.269A3.768,3.768,0,0,0,24.1-1.1V-2.411a9.46,9.46,0,0,0-1.331.122,3.825,3.825,0,0,0-.895.254,1.22,1.22,0,0,0-.5.37A.794.794,0,0,0,21.22-1.189ZM26.905.475V-5.934h1.137v2.528h3.071V-5.934h1.137V.475H31.114v-3H28.042v3ZM33.326-5.05v-.884h6.038v.884H36.91V.475H35.773V-5.05Zm6.551,3.924a1.42,1.42,0,0,1,.207-.729,1.807,1.807,0,0,1,.677-.624,4.512,4.512,0,0,1,1.22-.448,9.16,9.16,0,0,1,1.851-.2v-.5a1.7,1.7,0,0,0-.325-1.128,1.174,1.174,0,0,0-.944-.38,2.026,2.026,0,0,0-.7.105,2.847,2.847,0,0,0-.489.232q-.207.127-.356.232a.5.5,0,0,1-.291.105.326.326,0,0,1-.194-.059.491.491,0,0,1-.138-.151l-.2-.358A3.667,3.667,0,0,1,41.333-5.8a3.519,3.519,0,0,1,1.359-.253,2.354,2.354,0,0,1,.945.179,2,2,0,0,1,.7.494,2.062,2.062,0,0,1,.428.763,3.212,3.212,0,0,1,.144.986v4.1h-.5a.494.494,0,0,1-.253-.053.386.386,0,0,1-.142-.213L43.9-.39a6.381,6.381,0,0,1-.5.408,3.038,3.038,0,0,1-.505.3,2.6,2.6,0,0,1-.561.188,3.168,3.168,0,0,1-.67.065,2.357,2.357,0,0,1-.7-.1A1.547,1.547,0,0,1,40.4.16a1.5,1.5,0,0,1-.382-.528A1.852,1.852,0,0,1,39.876-1.126Zm1.075-.063a1.051,1.051,0,0,0,.081.431.792.792,0,0,0,.223.3.888.888,0,0,0,.338.168,1.62,1.62,0,0,0,.418.052A2.39,2.39,0,0,0,42.556-.3a2.062,2.062,0,0,0,.464-.168,2.5,2.5,0,0,0,.418-.269,3.769,3.769,0,0,0,.393-.361V-2.411a9.46,9.46,0,0,0-1.331.122,3.825,3.825,0,0,0-.895.254,1.22,1.22,0,0,0-.5.37A.794.794,0,0,0,40.952-1.189ZM45.908.475,47.589-2.2a1.851,1.851,0,0,1,.371-.45,1.335,1.335,0,0,1,.507-.262,1.127,1.127,0,0,1-.4-.226,1.682,1.682,0,0,1-.306-.379L46.081-5.934h.89a.545.545,0,0,1,.3.082.612.612,0,0,1,.21.227l1.36,1.986a.979.979,0,0,0,.337.312.949.949,0,0,0,.46.106h.55V-5.934h1.075v2.713H51.8a.9.9,0,0,0,.81-.418l1.36-1.986a.545.545,0,0,1,.213-.227.581.581,0,0,1,.3-.082h.89L53.694-3.521a1.969,1.969,0,0,1-.318.379,1.127,1.127,0,0,1-.4.226,1.3,1.3,0,0,1,.513.259,1.833,1.833,0,0,1,.377.453L55.542.475h-.785a.915.915,0,0,1-.463-.1.616.616,0,0,1-.247-.294l-1.248-2a.994.994,0,0,0-.9-.494h-.643V.481H50.184V-2.4h-.643a1.04,1.04,0,0,0-.513.127,1.022,1.022,0,0,0-.377.368L47.4.085a.628.628,0,0,1-.253.3.94.94,0,0,1-.463.093ZM56.6.481V-5.927h1.137v4.351q0,.117-.012.263t-.031.287a1.768,1.768,0,0,1,.108-.226q.059-.1.114-.188.006-.012.145-.2l.358-.488.5-.677q.278-.377.562-.766.674-.915,1.538-2.076a1.009,1.009,0,0,1,.177-.192.361.361,0,0,1,.239-.093h.678V.475H60.98V-3.882q0-.117.012-.263t.031-.294q-.056.124-.117.232t-.117.195-.148.2q-.136.188-.358.488l-.5.677q-.278.377-.562.766Q58.545-.965,57.7.2a1,1,0,0,1-.176.192.35.35,0,0,1-.232.093ZM63.18-5.05v-.884h6.038v.884H66.764V.475H65.627V-5.05Zm7.1,5.531V-5.927h1.137v4.351q0,.117-.012.263t-.031.287a1.767,1.767,0,0,1,.108-.226q.059-.1.114-.188.006-.012.145-.2L72.1-2.13l.5-.677q.278-.377.562-.766.674-.915,1.538-2.076a1.01,1.01,0,0,1,.177-.192.361.361,0,0,1,.239-.093h.678V.475H74.656V-3.882q0-.117.012-.263t.031-.294q-.056.124-.117.232t-.117.195-.148.2q-.136.188-.358.488l-.5.677q-.278.377-.562.766Q72.221-.965,71.374.2A1,1,0,0,1,71.2.388a.35.35,0,0,1-.232.093Z" transform="translate(807.748 578.094)" fill="#1a1a1a"/>
      <path id="Контур_29744" data-name="Контур 29744" d="M2.977.114a3.1,3.1,0,0,1-1.809-.5,1.772,1.772,0,0,1-.8-1.33H1.485a1.025,1.025,0,0,0,.486.673A1.889,1.889,0,0,0,2.977-.8a1.769,1.769,0,0,0,1.1-.3.955.955,0,0,0,.394-.8A.935.935,0,0,0,4.1-2.714a1.939,1.939,0,0,0-1.124-.263h-.99v-.9h.99q1.27,0,1.27-.965a.853.853,0,0,0-.314-.692A1.429,1.429,0,0,0,3-5.8a1.811,1.811,0,0,0-.965.235.908.908,0,0,0-.451.628H.514a1.84,1.84,0,0,1,.774-1.3A2.852,2.852,0,0,1,3-6.716a2.687,2.687,0,0,1,1.714.486,1.575,1.575,0,0,1,.609,1.3,1.469,1.469,0,0,1-.3.908,1.344,1.344,0,0,1-.79.514v.051a1.727,1.727,0,0,1,.981.536,1.447,1.447,0,0,1,.34.974A1.824,1.824,0,0,1,4.846-.454,2.9,2.9,0,0,1,2.977.114Z" transform="translate(889 579)" fill="#1a1a1a"/>
      <path id="Контур_29742" data-name="Контур 29742" d="M12.766-5.566A5.769,5.769,0,0,1,11.24-1.313,5.717,5.717,0,0,1,7,.223a5.816,5.816,0,0,1-4.56-1.879,7.357,7.357,0,0,1-1.684-5.1,7.176,7.176,0,0,1,1.675-5.01A5.826,5.826,0,0,1,6.967-13.61a5.964,5.964,0,0,1,3.79,1.215,5.055,5.055,0,0,1,1.906,3.219H10.53A3.575,3.575,0,0,0,9.222-11.1a3.694,3.694,0,0,0-2.245-.687,3.678,3.678,0,0,0-3.01,1.331,5.661,5.661,0,0,0-1.09,3.688,5.891,5.891,0,0,0,1.113,3.79A3.672,3.672,0,0,0,7.014-1.6a3.757,3.757,0,0,0,2.653-.951,3.268,3.268,0,0,0,1.048-2.472v-.232H7.255V-6.93h5.511Zm9.352,4.4A4.383,4.383,0,0,1,18.75.186a4.375,4.375,0,0,1-3.368-1.359A5.234,5.234,0,0,1,14.12-4.88a5.22,5.22,0,0,1,1.262-3.7A4.375,4.375,0,0,1,18.75-9.936a4.375,4.375,0,0,1,3.368,1.359,5.22,5.22,0,0,1,1.262,3.7A5.251,5.251,0,0,1,22.117-1.169Zm-3.368-.3a2.264,2.264,0,0,0,1.893-.9,4.024,4.024,0,0,0,.7-2.514,3.988,3.988,0,0,0-.7-2.5,2.268,2.268,0,0,0-1.888-.9,2.268,2.268,0,0,0-1.888.9,3.988,3.988,0,0,0-.7,2.5,4,4,0,0,0,.7,2.514A2.268,2.268,0,0,0,18.75-1.466Zm13.74.3A4.383,4.383,0,0,1,29.122.186a4.375,4.375,0,0,1-3.368-1.359A5.234,5.234,0,0,1,24.492-4.88a5.22,5.22,0,0,1,1.262-3.7,4.375,4.375,0,0,1,3.368-1.359,4.375,4.375,0,0,1,3.368,1.359,5.22,5.22,0,0,1,1.262,3.7A5.251,5.251,0,0,1,32.489-1.169Zm-3.368-.3a2.264,2.264,0,0,0,1.893-.9,4.024,4.024,0,0,0,.7-2.514,3.988,3.988,0,0,0-.7-2.5,2.268,2.268,0,0,0-1.888-.9,2.268,2.268,0,0,0-1.888.9,3.988,3.988,0,0,0-.7,2.5,4,4,0,0,0,.7,2.514A2.268,2.268,0,0,0,29.122-1.466Zm10.335-.158a2.293,2.293,0,0,0,1.888-.891,3.733,3.733,0,0,0,.71-2.394,3.813,3.813,0,0,0-.71-2.412,2.275,2.275,0,0,0-1.888-.909,2.215,2.215,0,0,0-1.851.9,3.877,3.877,0,0,0-.691,2.421,3.8,3.8,0,0,0,.691,2.4A2.232,2.232,0,0,0,39.457-1.624Zm.019,5.3a4.964,4.964,0,0,1-2.89-.816,3.012,3.012,0,0,1-1.368-2.1H37.23a1.834,1.834,0,0,0,.84.983,2.849,2.849,0,0,0,1.48.371,2.614,2.614,0,0,0,1.828-.608,2.082,2.082,0,0,0,.668-1.619v-1.6h-.037a3.1,3.1,0,0,1-1.239,1.28,3.639,3.639,0,0,1-1.851.473A3.627,3.627,0,0,1,35.968-1.3a5.512,5.512,0,0,1-1.1-3.614,5.58,5.58,0,0,1,1.109-3.651,3.67,3.67,0,0,1,2.992-1.35,3.534,3.534,0,0,1,1.846.487A3.315,3.315,0,0,1,42.073-8.09h.037V-9.76h1.948V-.176a3.477,3.477,0,0,1-1.248,2.8A5,5,0,0,1,39.475,3.674ZM46.108,0V-13.387h2V0Zm9.843-7.617a2.219,2.219,0,0,0-1.7-.705,2.3,2.3,0,0,0-1.726.71,2.806,2.806,0,0,0-.761,1.832h4.88A2.72,2.72,0,0,0,55.952-7.617Zm.687,4.75h1.9a3.293,3.293,0,0,1-1.373,2.2,4.642,4.642,0,0,1-2.83.854,4.333,4.333,0,0,1-3.372-1.35,5.243,5.243,0,0,1-1.229-3.669,5.409,5.409,0,0,1,1.229-3.7,4.157,4.157,0,0,1,3.289-1.4,4.1,4.1,0,0,1,3.21,1.322,5.112,5.112,0,0,1,1.188,3.549v.687H51.758v.121a2.9,2.9,0,0,0,.714,2.05,2.482,2.482,0,0,0,1.911.77,2.609,2.609,0,0,0,1.447-.39A1.883,1.883,0,0,0,56.638-2.867Zm7.654-10.521h5.019a4.309,4.309,0,0,1,3.177,1.225A4.284,4.284,0,0,1,73.718-8.99,4.277,4.277,0,0,1,72.47-5.8a4.4,4.4,0,0,1-3.224,1.229H66.37V0H64.292Zm2.078,1.753v5.316h2.384a2.949,2.949,0,0,0,2.1-.7,2.565,2.565,0,0,0,.742-1.967,2.561,2.561,0,0,0-.738-1.958,2.931,2.931,0,0,0-2.092-.7ZM75.369,0V-13.387h2V0Zm7.478-1.419a2.564,2.564,0,0,0,1.777-.645,2.053,2.053,0,0,0,.719-1.591v-.77l-2.4.148a2.541,2.541,0,0,0-1.387.441,1.206,1.206,0,0,0-.487,1.007A1.241,1.241,0,0,0,81.552-1.8,2.028,2.028,0,0,0,82.847-1.419ZM82.29.167a3.362,3.362,0,0,1-2.343-.816,2.728,2.728,0,0,1-.9-2.125,2.471,2.471,0,0,1,.946-2.036,4.61,4.61,0,0,1,2.681-.849l2.672-.158v-.751a1.614,1.614,0,0,0-.52-1.276A2.1,2.1,0,0,0,83.385-8.3,2.336,2.336,0,0,0,82-7.923a1.653,1.653,0,0,0-.673,1.048H79.433A2.927,2.927,0,0,1,80.6-9.083a4.491,4.491,0,0,1,2.857-.854,4.291,4.291,0,0,1,2.825.872,2.88,2.88,0,0,1,1.053,2.338V0h-1.92V-1.6H85.37A3.117,3.117,0,0,1,84.1-.315,3.613,3.613,0,0,1,82.29.167Zm7.951,3.47a5.026,5.026,0,0,1-.816-.046V1.967A3.442,3.442,0,0,0,90.074,2a1.719,1.719,0,0,0,1.1-.32A2.149,2.149,0,0,0,91.809.612q0-.009.093-.306l.083-.3L88.459-9.76H90.63l2.477,7.941h.028L95.612-9.76h2.115L94.063.51a5.445,5.445,0,0,1-1.457,2.449A3.666,3.666,0,0,1,90.241,3.637Z" transform="translate(808 598)" fill="#1a1a1a"/>
    </g>
  </g>
</svg>
