<?xml version="1.0" encoding="UTF-8"?>
<svg width="341px" height="123px" viewBox="0 0 341 123" version="1.1" xmlns="http://www.w3.org/2000/svg" xmlns:xlink="http://www.w3.org/1999/xlink">
    <title>KD_Logo_misto_v_kysheni@1,5x</title>
    <g id="home" stroke="none" stroke-width="1" fill="none" fill-rule="evenodd">
        <g id="KD_Logo_misto_v_kysheni" fill-rule="nonzero">
            <g id="Group">
                <polygon id="Path" fill="#0068FF" points="104.9 94.4 52.6 122.6 0.2 94.4 0.2 0.2 104.9 0.2"></polygon>
                <polygon id="Path" fill="#FFFFFF" points="82.9 45.6 82.9 22.2 60.5 22.2 48.2 43.2 48.2 42.6 48.5 38.5 48.5 22.2 22.2 22.2 22.2 82.1 48.5 82.1 48.5 64.7 48.2 60.2 48.1 59.5 61.1 82.1 82.9 82.1 82.9 58 62.7 53.1 58.1 52 62.7 50.8"></polygon>
            </g>
            <g id="Group" transform="translate(126.000000, 14.000000)" fill="#17273F">
                <polygon id="Path" points="0.9 8.2 6.9 8.2 6.9 16.5 9.9 16.5 15.4 8.2 22 8.2 15 19 22.6 30.7 15.4 30.7 9.9 22.4 6.9 22.4 6.9 30.7 0.9 30.7"></polygon>
                <polygon id="Path" points="26.5 8.2 32.4 8.2 32.4 21.6 41.4 8.2 47.7 8.2 47.7 30.7 41.8 30.7 41.8 17.2 32.8 30.7 26.5 30.7"></polygon>
                <polygon id="Path" points="51.1 0.4 57.2 0.4 54.3 6.6 54 6.6"></polygon>
                <rect id="Rectangle" x="54.1" y="8.2" width="6" height="22.5"></rect>
                <polygon id="Path" points="57.2 0.4 63.3 0.4 60.4 6.6 60.1 6.6"></polygon>
                <path d="M66.6,8.2 L77.8,8.2 C80.2,8.2 82.1,8.7 83.5,9.8 C84.9,10.9 85.6,12.4 85.6,14.3 C85.6,15.3 85.4,16.2 85,16.9 C84.6,17.6 84.1,18.3 83.3,18.9 L83.3,19.1 C84.2,19.7 85,20.4 85.5,21.3 C86,22.2 86.3,23.2 86.3,24.2 C86.3,25.5 86,26.6 85.3,27.6 C84.6,28.6 83.7,29.3 82.5,29.8 C81.3,30.3 80,30.6 78.4,30.6 L66.5,30.6 L66.5,8.2 L66.6,8.2 Z M77.4,17 C78.1,17 78.6,16.8 79,16.5 C79.4,16.2 79.6,15.7 79.6,15.1 C79.6,14.5 79.4,14.1 79,13.7 C78.6,13.3 78,13.2 77.4,13.2 L72.3,13.2 L72.3,17 L77.4,17 Z M77.9,25.8 C78.6,25.8 79.2,25.6 79.6,25.2 C80,24.8 80.2,24.3 80.2,23.7 C80.2,23.1 80,22.6 79.6,22.3 C79.2,21.9 78.6,21.7 77.9,21.7 L72.3,21.7 L72.3,25.7 L77.9,25.7 L77.9,25.8 Z" id="Shape"></path>
                <polygon id="Path" points="18.5 68 0.9 68 0.9 45.5 6.9 45.5 6.9 62.3 15.4 62.3 15.4 45.5 21.4 45.5 21.4 62.3 24.1 62.3 24.1 72.5 18.3 72.5 18.3 68"></polygon>
                <polygon id="Path" points="28.7 45.6 34.6 45.6 34.6 59 43.6 45.6 49.9 45.6 49.9 68 44 68 44 54.5 35 68 28.7 68"></polygon>
                <path d="M67.2,65.4 L64.8,65.4 C62.7,65.4 61,65 59.4,64.3 C57.9,63.6 56.7,62.6 55.9,61.2 C55.1,59.9 54.6,58.3 54.6,56.6 C54.6,54.8 55,53.3 55.9,52 C56.7,50.7 57.9,49.6 59.4,48.9 C60.9,48.2 62.7,47.8 64.8,47.8 L67.2,47.8 L67.2,45.2 L73.2,45.2 L73.2,47.8 L75.6,47.8 C77.7,47.8 79.4,48.2 81,48.9 C82.5,49.6 83.7,50.7 84.5,52 C85.3,53.3 85.8,54.9 85.8,56.6 C85.8,58.4 85.4,59.9 84.5,61.2 C83.7,62.5 82.5,63.6 81,64.3 C79.5,65 77.7,65.4 75.6,65.4 L73.2,65.4 L73.2,68.1 L67.2,68.1 L67.2,65.4 Z M67.2,60.1 L67.2,53 L65,53 C63.7,53 62.7,53.3 62,53.9 C61.3,54.5 60.9,55.4 60.9,56.5 C60.9,57.2 61.1,57.9 61.4,58.4 C61.7,58.9 62.2,59.3 62.8,59.6 C63.4,59.9 64.2,60 65.1,60 L67.2,60 L67.2,60.1 Z M75.6,60.1 C76.5,60.1 77.2,60 77.8,59.7 C78.4,59.4 78.9,59 79.2,58.5 C79.5,58 79.7,57.3 79.7,56.6 C79.7,55.5 79.4,54.6 78.7,54 C78,53.4 77,53.1 75.7,53.1 L73.4,53.1 L73.4,60.2 L75.6,60.2 L75.6,60.1 Z" id="Shape"></path>
                <path d="M90.6,45.6 L100.2,45.6 C103,45.6 105.2,46.3 106.8,47.6 C108.4,48.9 109.2,50.8 109.2,53.1 C109.2,55.4 108.4,57.3 106.8,58.6 C105.2,59.9 103,60.6 100.2,60.6 L96.5,60.6 L96.5,68.1 L90.6,68.1 L90.6,45.6 L90.6,45.6 Z M100.2,55.8 C101.1,55.8 101.8,55.6 102.3,55.1 C102.8,54.6 103.1,54 103.1,53.3 C103.1,52.5 102.8,51.9 102.3,51.5 C101.8,51 101,50.8 100.2,50.8 L96.4,50.8 L96.4,55.9 L100.2,55.9 L100.2,55.8 Z" id="Shape"></path>
                <path d="M124.2,68.5 C122,68.5 119.9,68 118.2,67 C116.4,66 115,64.6 114,62.8 C113,61 112.5,59 112.5,56.8 C112.5,54.6 113,52.6 114,50.8 C115,49 116.4,47.6 118.2,46.6 C120,45.6 122,45.1 124.2,45.1 C126.4,45.1 128.4,45.6 130.2,46.6 C132,47.6 133.4,49 134.4,50.8 C135.4,52.6 135.9,54.6 135.9,56.8 C135.9,59 135.4,61 134.4,62.8 C133.4,64.6 132,66 130.2,67 C128.5,68 126.4,68.5 124.2,68.5 Z M124.2,62.7 C125.3,62.7 126.2,62.4 127.1,61.9 C128,61.4 128.6,60.7 129.1,59.8 C129.6,58.9 129.9,57.9 129.9,56.8 C129.9,55.7 129.6,54.7 129.1,53.8 C128.6,52.9 127.9,52.2 127.1,51.7 C126.2,51.2 125.3,50.9 124.2,50.9 C123.1,50.9 122.2,51.2 121.3,51.7 C120.4,52.2 119.8,52.9 119.3,53.8 C118.8,54.7 118.6,55.7 118.6,56.8 C118.6,57.9 118.8,58.9 119.3,59.8 C119.8,60.7 120.5,61.4 121.3,61.9 C122.2,62.4 123.1,62.7 124.2,62.7 Z" id="Shape"></path>
                <path d="M141,45.6 L152.2,45.6 C154.6,45.6 156.5,46.1 157.9,47.2 C159.3,48.3 160,49.8 160,51.7 C160,52.7 159.8,53.6 159.4,54.3 C159,55.1 158.5,55.7 157.7,56.3 L157.7,56.5 C158.6,57.1 159.4,57.8 159.9,58.7 C160.4,59.6 160.7,60.6 160.7,61.6 C160.7,62.9 160.4,64 159.7,65 C159,66 158.1,66.7 156.9,67.2 C155.7,67.7 154.4,68 152.8,68 L141,68 L141,45.6 Z M151.8,54.4 C152.5,54.4 153,54.2 153.4,53.9 C153.8,53.5 154,53.1 154,52.5 C154,51.9 153.8,51.5 153.4,51.1 C153,50.7 152.4,50.6 151.8,50.6 L146.7,50.6 L146.7,54.5 L151.8,54.5 L151.8,54.4 Z M152.4,63.1 C153.1,63.1 153.7,62.9 154.1,62.5 C154.5,62.1 154.7,61.6 154.7,61 C154.7,60.4 154.5,59.9 154.1,59.6 C153.7,59.2 153.1,59 152.4,59 L146.8,59 L146.8,63 L152.4,63 L152.4,63.1 Z" id="Shape"></path>
                <polygon id="Path" points="165.5 45.6 171.4 45.6 171.4 59 180.4 45.6 186.7 45.6 186.7 68 180.8 68 180.8 54.5 171.8 68 165.5 68"></polygon>
                <path d="M193.1,45.6 L199,45.6 L199,59 L208,45.6 L214.3,45.6 L214.3,68 L208.4,68 L208.4,54.5 L199.4,68 L193.1,68 L193.1,45.6 Z M203.7,44 C202.4,44 201.2,43.7 200.2,43.2 C199.2,42.7 198.4,42 197.9,41 C197.4,40.1 197.1,39.1 197.1,37.9 L197.1,37.6 L201.4,37.6 L201.4,37.8 C201.4,38.5 201.6,39 202.1,39.5 C202.5,39.9 203.1,40.1 203.8,40.1 C204.5,40.1 205,39.9 205.5,39.5 C205.9,39.1 206.2,38.5 206.2,37.8 L206.2,37.6 L210.5,37.6 L210.5,37.9 C210.5,39 210.2,40.1 209.7,41 C209.2,41.9 208.4,42.6 207.4,43.2 C206.2,43.8 205,44 203.7,44 Z" id="Shape"></path>
            </g>
            <text id="місто-в-кишені" fill="#17273F" font-family="Helvetica" font-size="21" font-weight="normal">
                <tspan x="125.3499" y="112.8675">місто в кишені</tspan>
            </text>
        </g>
    </g>
</svg>